<svg width="20" height="18" viewBox="0 0 20 18" fill="none" xmlns="http://www.w3.org/2000/svg">
<path d="M1.24609 17.9258C0.558594 17.9258 0 17.3711 0 16.6797C0 16.3477 0.132812 16.0313 0.363281 15.8008L7.14062 9.02344L0.363281 2.24609C-0.117188 1.75391 -0.105469 0.964844 0.386719 0.484375C0.871094 0.0117188 1.64453 0.0117188 2.12891 0.484375L9.78516 8.14062C10.2734 8.625 10.2734 9.41406 9.78516 9.90234L2.125 17.5625C1.89453 17.7969 1.57812 17.9297 1.24609 17.9258ZM1.24609 0.351562C0.683594 0.351562 0.230469 0.808594 0.234375 1.37109C0.234375 1.63672 0.339844 1.89453 0.53125 2.08594L7.47266 9.02734L0.527344 15.9648C0.152344 16.3828 0.1875 17.0234 0.601562 17.3984C0.988281 17.7461 1.57422 17.7461 1.96094 17.3984L9.62109 9.74219C10.0156 9.34766 10.0156 8.70312 9.62109 8.30859L1.96484 0.648438C1.77344 0.457031 1.51562 0.347656 1.24609 0.351562Z" fill="white"/>
<path d="M1.53516 0.878902C1.3125 0.664058 0.960938 0.671871 0.746094 0.894527C0.539062 1.10937 0.539062 1.44921 0.746094 1.66406L8.10156 9.01953L0.746094 16.3789C0.527344 16.5977 0.527344 16.9492 0.746094 17.168C0.964844 17.3867 1.31641 17.3867 1.53516 17.168L9.28516 9.41796C9.50391 9.19921 9.50391 8.84765 9.28516 8.6289L1.53516 0.878902Z" fill="white"/>
<path d="M11.0937 17.8828C10.4062 17.8828 9.84766 17.3242 9.84766 16.6367C9.84766 16.3047 9.98047 15.9883 10.2109 15.7539L16.9922 8.97656L10.2148 2.19922C9.73437 1.70703 9.74219 0.917969 10.2383 0.4375C10.7227 -0.0351562 11.4961 -0.0351562 11.9805 0.4375L19.6406 8.09766C20.1289 8.58203 20.1289 9.37109 19.6406 9.85937L11.9766 17.5156C11.7422 17.75 11.4258 17.8828 11.0937 17.8828ZM11.0937 0.304688C10.5312 0.304688 10.0781 0.761719 10.082 1.32422C10.082 1.58984 10.1875 1.84766 10.3789 2.03906L17.3203 8.98047L10.3789 15.918C9.96094 16.293 9.92969 16.9375 10.3047 17.3516C10.6797 17.7695 11.3242 17.8008 11.7383 17.4258C11.7656 17.4023 11.7891 17.3789 11.8125 17.3516L19.4727 9.69141C19.8672 9.29687 19.8672 8.65234 19.4727 8.25781L11.8125 0.601562C11.6211 0.410156 11.3633 0.304688 11.0937 0.304688Z" fill="white"/>
<path d="M19.25 8.58203L11.5039 0.832031C11.2852 0.613281 10.9336 0.613281 10.7148 0.832031C10.4961 1.05078 10.4961 1.40234 10.7148 1.62109L18.0703 8.97656L10.7148 16.332C10.4961 16.5508 10.4961 16.9023 10.7148 17.1211C10.9336 17.3398 11.2852 17.3398 11.5039 17.1211L19.2539 9.37109C19.4688 9.15234 19.4688 8.80078 19.25 8.58203Z" fill="white"/>
</svg>
