<svg width="20" height="20" viewBox="0 0 20 20" fill="none" xmlns="http://www.w3.org/2000/svg">
<g clip-path="url(#clip0_59_397)">
<path d="M1.24609 18.9258C0.558594 18.9258 0 18.3711 0 17.6797C0 17.3477 0.132812 17.0313 0.363281 16.8008L7.14062 10.0234L0.363281 3.24609C-0.117188 2.75391 -0.105469 1.96484 0.386719 1.48438C0.871094 1.01172 1.64453 1.01172 2.12891 1.48438L9.78516 9.14062C10.2734 9.625 10.2734 10.4141 9.78516 10.9023L2.125 18.5625C1.89453 18.7969 1.57812 18.9297 1.24609 18.9258ZM1.24609 1.35156C0.683594 1.35156 0.230469 1.80859 0.234375 2.37109C0.234375 2.63672 0.339844 2.89453 0.53125 3.08594L7.47266 10.0273L0.527344 16.9648C0.152344 17.3828 0.1875 18.0234 0.601562 18.3984C0.988281 18.7461 1.57422 18.7461 1.96094 18.3984L9.62109 10.7422C10.0156 10.3477 10.0156 9.70312 9.62109 9.30859L1.96484 1.64844C1.77344 1.45703 1.51562 1.34766 1.24609 1.35156Z" fill="#252525"/>
<path d="M1.53516 1.8789C1.3125 1.66406 0.960938 1.67187 0.746094 1.89453C0.539062 2.10937 0.539062 2.44921 0.746094 2.66406L8.10156 10.0195L0.746094 17.3789C0.527344 17.5977 0.527344 17.9492 0.746094 18.168C0.964844 18.3867 1.31641 18.3867 1.53516 18.168L9.28516 10.418C9.50391 10.1992 9.50391 9.84765 9.28516 9.6289L1.53516 1.8789Z" fill="#252525"/>
<path d="M11.0937 18.8828C10.4062 18.8828 9.84766 18.3242 9.84766 17.6367C9.84766 17.3047 9.98047 16.9883 10.2109 16.7539L16.9922 9.97656L10.2148 3.19922C9.73437 2.70703 9.74219 1.91797 10.2383 1.4375C10.7227 0.964844 11.4961 0.964844 11.9805 1.4375L19.6406 9.09766C20.1289 9.58203 20.1289 10.3711 19.6406 10.8594L11.9766 18.5156C11.7422 18.75 11.4258 18.8828 11.0937 18.8828ZM11.0937 1.30469C10.5312 1.30469 10.0781 1.76172 10.082 2.32422C10.082 2.58984 10.1875 2.84766 10.3789 3.03906L17.3203 9.98047L10.3789 16.918C9.96094 17.293 9.92969 17.9375 10.3047 18.3516C10.6797 18.7695 11.3242 18.8008 11.7383 18.4258C11.7656 18.4023 11.7891 18.3789 11.8125 18.3516L19.4727 10.6914C19.8672 10.2969 19.8672 9.65234 19.4727 9.25781L11.8125 1.60156C11.6211 1.41016 11.3633 1.30469 11.0937 1.30469Z" fill="#252525"/>
<path d="M19.25 9.58203L11.5039 1.83203C11.2852 1.61328 10.9336 1.61328 10.7148 1.83203C10.4961 2.05078 10.4961 2.40234 10.7148 2.62109L18.0703 9.97656L10.7148 17.332C10.4961 17.5508 10.4961 17.9023 10.7148 18.1211C10.9336 18.3398 11.2852 18.3398 11.5039 18.1211L19.2539 10.3711C19.4688 10.1523 19.4688 9.80078 19.25 9.58203Z" fill="#252525"/>
</g>
<defs>
<clipPath id="clip0_59_397">
<rect width="20" height="20" fill="white"/>
</clipPath>
</defs>
</svg>
