<svg width="100" height="100" viewBox="0 0 100 100" fill="none" xmlns="http://www.w3.org/2000/svg">
<rect x="1" y="1" width="98" height="98" rx="49" fill="#FFD050"/>
<rect x="1" y="1" width="98" height="98" rx="49" stroke="#1C8E5A" stroke-width="2"/>
<path d="M23.7496 32.4988V60.4988C23.7496 60.9247 23.7096 61.5499 24.0383 62.2078C24.367 62.8656 25.087 63.3908 26.1011 63.6262L46.3047 68.3191L31.6245 71.6568V67.3091C31.6344 66.8131 31.2284 66.409 30.7324 66.4187C30.2498 66.4286 29.8659 66.8265 29.8745 67.3091V72.7488C29.8745 73.3114 30.3978 73.7279 30.946 73.6016L50.0012 69.2728L69.0546 73.6016C69.6035 73.7293 70.1282 73.3122 70.1279 72.7488V67.3091C70.1014 66.168 68.4032 66.168 68.3779 67.3091V71.6568L53.6943 68.3191L73.8979 63.6262C74.9119 63.3908 75.6318 62.8656 75.9607 62.2078C76.2894 61.5499 76.2494 60.9247 76.2494 60.4988V32.4988C76.2488 31.9351 75.7232 31.519 75.1744 31.6478L72.7494 32.2168V29.0005C72.7494 27.5614 71.5669 26.3721 70.1278 26.3721H53.5011C51.9117 26.372 50.7606 26.8493 49.9943 28.1238C49.2276 26.8505 48.0878 26.372 46.4994 26.3721H29.8744C28.4353 26.3721 27.2511 27.5614 27.2511 29.0005V32.2185L24.7141 31.6187C24.1339 31.5923 23.7494 32.0047 23.7496 32.4988ZM29.8746 28.1221H46.4996C47.9689 28.1221 49.1229 29.2812 49.1229 30.7506V55.2505C49.1493 56.3917 50.8476 56.3917 50.8729 55.2505V30.7881C50.8731 30.7749 50.8731 30.7617 50.8729 30.7505C50.8729 29.2811 52.0319 28.122 53.5013 28.122H70.128C70.6279 28.122 70.9996 28.5006 70.9996 29.0004V57.0005C70.9996 57.5003 70.6279 57.872 70.128 57.872H53.5013C51.9112 57.872 50.7606 58.3483 49.9945 59.6237C49.2281 58.3495 48.0887 57.872 46.4996 57.872H29.8746C29.3747 57.872 29.003 57.5003 29.003 57.0005V29.0004C29.003 28.5005 29.3747 28.1221 29.8746 28.1221ZM40.4088 33.3413C41.6016 33.3678 41.6016 31.5649 40.4088 31.5914H32.4543C31.2729 31.6714 31.3542 33.3703 32.4963 33.3413H40.4088ZM43.8575 31.6238C42.7168 31.6701 42.7484 33.3697 43.8906 33.3738L45.6799 33.3407C46.8741 33.3423 46.8353 31.5379 45.6422 31.5908L43.8575 31.6238ZM56.1041 33.4063C57.3553 33.528 57.3988 31.596 56.1434 31.6614L54.3122 31.6231C53.1025 31.6565 53.1538 33.4081 54.3221 33.3739L56.1041 33.4063ZM59.5921 31.6222C58.4243 31.6222 58.4243 33.3738 59.5921 33.3738H67.4979C68.6657 33.3738 68.6657 31.6222 67.4979 31.6222H59.5921ZM25.4996 33.6028L27.2513 34.0147V57.0006C27.2513 58.4397 28.4355 59.6238 29.8746 59.6238H46.4996C47.969 59.6238 49.1229 60.776 49.1229 62.2454C49.1493 63.3865 50.8476 63.3865 50.8729 62.2454C50.8729 60.776 52.0319 59.6238 53.5013 59.6238H70.128C71.5671 59.6238 72.7496 58.4397 72.7496 57.0006V34.0147L74.4996 33.6028V60.4988C74.4996 60.948 74.4764 61.2633 74.3954 61.4251C74.3144 61.5868 74.1983 61.7611 73.5033 61.9224L49.9996 67.3792L26.496 61.9224C25.8011 61.7611 25.6848 61.5869 25.6039 61.4251C25.5229 61.2634 25.4997 60.948 25.4997 60.4988L25.4996 33.6028ZM32.4543 36.8413C31.3217 36.9611 31.399 38.5715 32.4963 38.5862H45.6606C46.8623 38.6924 46.9624 36.8655 45.7085 36.8405L32.4543 36.8413ZM67.4979 38.6255C68.6657 38.6255 68.6657 36.8738 67.4979 36.8738H54.2968C53.0837 36.9344 53.1743 38.6859 54.3421 38.6255H67.4979ZM32.5167 42.0862C31.3489 42.0663 31.3164 43.8163 32.4836 43.8379L34.266 43.8757C35.4076 43.8724 35.4392 42.1721 34.2991 42.1256L32.5167 42.0862ZM37.7479 42.0862C36.5801 42.0862 36.5801 43.8379 37.7479 43.8379H45.6605C46.8283 43.8379 46.8283 42.0862 45.6605 42.0862H37.7479ZM62.2479 43.8756C63.3889 43.8491 63.3889 42.1509 62.2479 42.1255H54.2968C53.1115 42.2095 53.1995 43.9096 54.3421 43.8756H62.2479ZM65.6966 42.158C64.5034 42.1547 64.5368 43.9564 65.7297 43.908L67.519 43.875C68.712 43.8742 68.6715 42.0721 67.4796 42.1249L65.6966 42.158ZM32.4962 47.3379C31.3033 47.3114 31.3033 49.1144 32.4962 49.0879H45.6605C46.8533 49.1144 46.8533 47.3114 45.6605 47.3379H32.4962ZM54.2968 47.3772C53.1754 47.5125 53.2578 49.0975 54.3421 49.1204H67.4978C68.6976 49.2256 68.7992 47.4028 67.5464 47.3756L54.2968 47.3772ZM32.4962 54.3397H40.4088C41.6016 54.3662 41.6016 52.5632 40.4088 52.5897H32.4543C31.2729 52.67 31.354 54.3687 32.4962 54.3397ZM45.6417 52.5897L43.8575 52.6228C42.7168 52.6691 42.7484 54.3686 43.8906 54.3727L45.6799 54.3397C46.8741 54.3414 46.8349 52.5367 45.6417 52.5897ZM54.3541 52.6228C53.1617 52.5742 53.1283 54.377 54.321 54.3727L56.1035 54.4121C57.2713 54.4385 57.3106 52.6866 56.1429 52.6604L54.3541 52.6228ZM59.5921 52.6228C58.3993 52.5963 58.3993 54.3992 59.5921 54.3727H67.4979C68.6389 54.3462 68.6389 52.6481 67.4979 52.6228H59.5921Z" fill="#252525"/>
</svg>
