<svg width="56" height="56" viewBox="0 0 56 56" fill="none" xmlns="http://www.w3.org/2000/svg">
<rect width="56" height="56" rx="28" fill="white"/>
<g clip-path="url(#clip0_63_4181)">
<path d="M28.2285 13.9997C35.9607 13.9997 42.2285 20.2675 42.2285 27.9997C42.2285 35.7319 35.9607 41.9997 28.2285 41.9997C20.4963 41.9997 14.2285 35.7319 14.2285 27.9997C14.2285 20.2675 20.4963 13.9997 28.2285 13.9997ZM28.2285 19.5997C27.8572 19.5997 27.5011 19.7472 27.2386 20.0097C26.976 20.2723 26.8285 20.6284 26.8285 20.9997V27.9997C26.8286 28.371 26.9761 28.727 27.2387 28.9895L31.4387 33.1895C31.7028 33.4445 32.0564 33.5856 32.4235 33.5824C32.7906 33.5792 33.1417 33.432 33.4013 33.1724C33.6608 32.9129 33.8081 32.5617 33.8113 32.1947C33.8144 31.8276 33.6733 31.4739 33.4183 31.2099L29.6285 27.4201V20.9997C29.6285 20.6284 29.481 20.2723 29.2185 20.0097C28.9559 19.7472 28.5998 19.5997 28.2285 19.5997Z" fill="#1C8E5A"/>
</g>
<defs>
<clipPath id="clip0_63_4181">
<rect width="33.6" height="33.6" fill="white" transform="translate(11.4316 11.2001)"/>
</clipPath>
</defs>
</svg>
