<svg width="56" height="56" viewBox="0 0 56 56" fill="none" xmlns="http://www.w3.org/2000/svg">
<rect width="56" height="56" rx="28" fill="white"/>
<path d="M28.3469 27.2997C27.4186 27.2997 26.5284 26.9309 25.872 26.2746C25.2156 25.6182 24.8469 24.728 24.8469 23.7997C24.8469 22.8714 25.2156 21.9812 25.872 21.3248C26.5284 20.6684 27.4186 20.2997 28.3469 20.2997C29.2751 20.2997 30.1654 20.6684 30.8217 21.3248C31.4781 21.9812 31.8469 22.8714 31.8469 23.7997C31.8469 24.2593 31.7563 24.7144 31.5805 25.1391C31.4046 25.5637 31.1468 25.9496 30.8217 26.2746C30.4967 26.5996 30.1109 26.8574 29.6863 27.0333C29.2616 27.2092 28.8065 27.2997 28.3469 27.2997ZM28.3469 13.9997C25.7478 13.9997 23.2551 15.0322 21.4172 16.87C19.5794 18.7079 18.5469 21.2006 18.5469 23.7997C18.5469 31.1497 28.3469 41.9997 28.3469 41.9997C28.3469 41.9997 38.1469 31.1497 38.1469 23.7997C38.1469 21.2006 37.1144 18.7079 35.2765 16.87C33.4387 15.0322 30.946 13.9997 28.3469 13.9997Z" fill="#1C8E5A"/>
</svg>
