<svg width="100" height="100" viewBox="0 0 100 100" fill="none" xmlns="http://www.w3.org/2000/svg">
<rect x="1" y="1" width="98" height="98" rx="49" fill="#FFD050"/>
<rect x="1" y="1" width="98" height="98" rx="49" stroke="#1C8E5A" stroke-width="2"/>
<path fill-rule="evenodd" clip-rule="evenodd" d="M29.5633 31.6518C29.8116 30.7213 30.4086 29.9435 31.2429 29.4614C31.7012 29.1979 32.1978 29.0421 32.7024 28.9928C32.294 29.2886 31.9362 29.6623 31.6507 30.1041C30.8053 31.4156 30.767 33.0047 31.546 34.3557C32.0371 35.2065 32.785 35.8193 33.6402 36.1431C33.3286 36.1931 33.0048 36.2041 32.6774 36.1699C31.5119 36.0519 30.509 35.4025 29.9236 34.3873C29.4421 33.5536 29.3137 32.5818 29.5633 31.6518ZM32.5314 37.6081C32.7091 37.6251 32.8867 37.6349 33.062 37.6349C34.5044 37.6343 35.8536 37.0324 36.8243 35.9381C37.0459 35.6885 37.0678 35.3216 36.8779 35.0471C36.6893 34.7738 36.338 34.665 36.0264 34.7836C34.8087 35.2485 33.4509 34.7653 32.7967 33.6339C32.2934 32.7612 32.3196 31.7345 32.8655 30.8861C33.4163 30.0329 34.3425 29.5818 35.343 29.6793C35.6753 29.7121 35.9844 29.5137 36.0952 29.2009C36.206 28.8869 36.0874 28.54 35.8079 28.3575C34.2036 27.3107 32.1777 27.2559 30.5205 28.2114C29.352 28.8858 28.5164 29.9752 28.1677 31.2781C27.8184 32.5811 27.9974 33.9419 28.6723 35.1097C29.4926 36.5309 30.8991 37.4426 32.5314 37.6081ZM65.4159 31.4638H65.4177C65.7305 31.4638 66.0093 31.2617 66.1041 30.9641L66.6616 29.2376L67.2197 30.9641C67.3146 31.2617 67.5927 31.4638 67.9061 31.4638H67.9079L69.7215 31.4613L68.2518 32.524C67.9974 32.7083 67.8914 33.0346 67.9889 33.3334L68.5525 35.057L67.0876 33.9883C66.9604 33.8957 66.8113 33.8495 66.6616 33.8495C66.5124 33.8495 66.3633 33.8957 66.2362 33.9883L64.7713 35.057L65.3349 33.3334C65.4323 33.0346 65.3264 32.7083 65.072 32.524L63.6022 31.4613L65.4159 31.4638ZM60.9427 31.3195L63.7976 33.3851L62.7028 36.7342C62.6055 37.033 62.7108 37.3592 62.9651 37.5436C63.2182 37.7274 63.5622 37.7274 63.8153 37.5424L66.6617 35.4659L69.5086 37.5424C69.6358 37.6349 69.7849 37.6811 69.934 37.6811C70.0837 37.6811 70.2328 37.6361 70.3588 37.5436C70.6132 37.3592 70.7191 37.033 70.6204 36.7342L69.5255 33.3851L72.3811 31.3195C72.6343 31.1357 72.7414 30.8089 72.6439 30.5108C72.5478 30.2132 72.2703 30.0117 71.9575 30.0117C71.9563 30.0117 71.9563 30.0117 71.9557 30.0117L68.432 30.0184L67.3493 26.6657C67.2532 26.3674 66.9749 26.1666 66.6616 26.1666C66.3488 26.1666 66.0707 26.3674 65.9745 26.6657L64.8918 30.0184L61.368 30.0117C61.3674 30.0117 61.3674 30.0117 61.3662 30.0117C61.0534 30.0117 60.7759 30.2132 60.6798 30.5108C60.5824 30.8089 60.6896 31.1357 60.9427 31.3195ZM35.3248 52.2234C34.9627 52.3914 34.5329 52.235 34.365 51.8729C34.197 51.5108 34.3541 51.0811 34.7149 50.9137C36.7933 49.9472 38.8868 49.5029 40.9402 49.5961C42.9412 49.6862 44.9673 50.2887 46.9628 51.3878C47.3116 51.5795 47.4393 52.0182 47.2464 52.3676C47.115 52.6068 46.8685 52.7424 46.6129 52.7424C46.4954 52.7424 46.3761 52.7139 46.2654 52.6529C42.6102 50.6392 39.0305 50.4986 35.3248 52.2234ZM52.753 52.3676C52.5619 52.0182 52.689 51.5794 53.0383 51.3878C55.0327 50.2886 57.0587 49.6862 59.0598 49.5961C61.1132 49.5036 63.2067 49.9472 65.2844 50.9137C65.6472 51.081 65.803 51.5108 65.6355 51.8729C65.467 52.235 65.0373 52.3914 64.6751 52.2234C60.9694 50.4986 57.3903 50.6393 53.7345 52.6531C53.6238 52.7139 53.5045 52.7425 53.3864 52.7425C53.1315 52.7425 52.885 52.6068 52.753 52.3676ZM36.8463 57.5023C36.7367 57.562 36.618 57.5911 36.5018 57.5911C36.2455 57.5911 35.9979 57.4548 35.8671 57.2138C35.6765 56.8632 35.8056 56.4251 36.1561 56.2339C39.7054 54.3035 43.3332 54.242 46.9379 56.0526C47.294 56.2303 47.4388 56.6648 47.2593 57.0208C47.0803 57.3787 46.6458 57.5217 46.2898 57.3428C43.0885 55.7355 39.9993 55.7873 36.8463 57.5023ZM64.1342 57.2138C64.0034 57.4548 63.7544 57.5911 63.4982 57.5911C63.382 57.5911 63.2633 57.5619 63.1537 57.5023C60.0006 55.7885 56.9114 55.7356 53.7102 57.3428C53.3542 57.5218 52.9197 57.3776 52.7408 57.0208C52.5619 56.6648 52.706 56.2303 53.0621 56.0526C56.6668 54.242 60.2946 54.3035 63.8439 56.2339C64.1944 56.4251 64.3247 56.8632 64.1342 57.2138ZM47.3158 61.6297C47.2215 62.0181 46.8307 62.2548 46.4437 62.1616C43.5668 61.4635 40.833 61.6437 38.3177 62.696C38.2265 62.7343 38.1315 62.752 38.0384 62.752C37.7566 62.752 37.4883 62.5852 37.372 62.3089C37.218 61.9413 37.3921 61.5172 37.7603 61.3632C40.5665 60.1892 43.6016 59.9859 46.7845 60.7576C47.1716 60.852 47.4096 61.2433 47.3158 61.6297ZM62.628 62.3089C62.5124 62.5852 62.244 62.752 61.9616 62.752C61.8679 62.752 61.7736 62.7343 61.6828 62.696C59.167 61.6437 56.4332 61.4636 53.5563 62.1616C53.168 62.2559 52.7779 62.0179 52.6849 61.6297C52.5906 61.2433 52.8286 60.852 53.2162 60.7576C56.3979 59.9859 59.4348 60.1892 62.2409 61.3632C62.6085 61.5172 62.7819 61.9413 62.628 62.3089ZM64.5237 72.0756L71.3412 52.0079L69.7655 51.1687L63.794 68.7497C63.7258 68.95 63.5737 69.1106 63.3765 69.1885C63.1793 69.267 62.959 69.2555 62.7721 69.1557C58.229 66.7512 54.1783 66.7652 50.3898 69.1965C50.2717 69.2725 50.136 69.3115 50.0002 69.3115C49.8816 69.3115 49.7622 69.2823 49.6539 69.2227C49.6387 69.2147 49.6254 69.2044 49.6107 69.1952L49.61 69.1965C45.8215 66.7652 41.7708 66.7512 37.2283 69.1557C37.1225 69.2117 37.0068 69.2397 36.8905 69.2397C36.7998 69.2397 36.7092 69.2232 36.624 69.1886C36.4274 69.1107 36.2741 68.9501 36.2071 68.7498L30.2345 51.1687L28.6594 52.0079L35.4756 72.0756L38.0517 70.7131C39.9336 69.7168 44.7541 68.3712 47.3692 69.7721C48.1921 70.2145 48.7428 70.8968 48.9856 71.7665H51.014C51.2575 70.8968 51.8077 70.2147 52.6317 69.7721C55.2455 68.3711 60.0662 69.7167 61.9481 70.7131L64.5237 72.0756ZM49.2779 49.2498C43.4142 44.1103 37.1506 43.1913 30.156 46.4485L37.3075 67.4997C41.5671 65.4627 45.585 65.4092 49.2779 67.3347V49.2498ZM50.0003 37.5771C53.6184 37.5771 56.5859 40.4119 56.8001 43.9782C54.454 44.7639 52.1851 46.0937 50.0003 47.9651C47.8149 46.0937 45.5461 44.7639 43.2006 43.977C43.4147 40.4118 46.3822 37.5771 50.0003 37.5771ZM46.4169 32.5483C46.4169 30.5734 48.0237 28.9649 50.0003 28.9649C51.9758 28.9649 53.5831 30.5735 53.5831 32.5483C53.5831 34.5244 51.9758 36.1323 50.0003 36.1323C48.0237 36.1323 46.4169 34.5243 46.4169 32.5483ZM69.8434 46.4485C62.8829 43.2071 56.6461 44.1024 50.8061 49.1768L50.8158 49.214L50.7428 49.2322C50.7361 49.2383 50.7288 49.2432 50.7221 49.2487V67.3348C52.5174 66.3981 54.3906 65.9302 56.329 65.9302C58.3794 65.9302 60.5034 66.453 62.6936 67.4998L69.8434 46.4485ZM72.5614 51.0214L70.2366 49.7829L71.4173 46.3067C71.5336 45.9641 71.379 45.588 71.0546 45.4273C66.5802 43.2113 62.2878 42.5955 58.2176 43.5716C57.9023 40.3935 55.779 37.7396 52.8942 36.6574C54.1832 35.7452 55.0279 34.2444 55.0279 32.5483C55.0279 29.7767 52.7725 27.5177 50.0003 27.5177C47.2276 27.5177 44.9722 29.7767 44.9722 32.5483C44.9722 34.2444 45.8169 35.7452 47.1066 36.6574C44.2213 37.7396 42.0978 40.3935 41.7838 43.5711C37.7124 42.5956 33.4211 43.2115 28.9468 45.4273C28.6225 45.588 28.466 45.9641 28.5829 46.3067L29.7636 49.7829L27.4386 51.0214C27.1258 51.1882 26.9803 51.5558 27.0942 51.8911L34.3808 73.3434C34.4496 73.5436 34.6018 73.7042 34.7977 73.7822C34.9955 73.8607 35.2158 73.8485 35.4026 73.7499L38.7279 71.9893C40.3882 71.1111 44.7012 69.9816 46.6865 71.0454C47.2866 71.3679 47.5982 71.8493 47.6693 72.5614C47.7058 72.9302 48.0168 73.2113 48.388 73.2113H51.6117C51.9823 73.2113 52.2939 72.9302 52.3304 72.5614C52.4016 71.8494 52.7144 71.3679 53.3144 71.0454C55.2978 69.9816 59.6127 71.1111 61.2717 71.9893L64.5971 73.7499C64.7017 73.8053 64.8186 73.8334 64.9349 73.8334C65.0256 73.8334 65.1162 73.8164 65.202 73.7823C65.398 73.7044 65.5501 73.5437 65.6189 73.3435L72.9055 51.8912C73.0197 51.5558 72.8742 51.1882 72.5614 51.0214Z" fill="#252525"/>
</svg>
