<svg width="100" height="100" viewBox="0 0 100 100" fill="none" xmlns="http://www.w3.org/2000/svg">
<rect x="1" y="1" width="98" height="98" rx="49" fill="#FFD050"/>
<rect x="1" y="1" width="98" height="98" rx="49" stroke="#1C8E5A" stroke-width="2"/>
<path fill-rule="evenodd" clip-rule="evenodd" d="M29.5623 31.6518C29.8106 30.7213 30.4077 29.9435 31.2419 29.4614C31.7002 29.1979 32.1969 29.0421 32.7014 28.9928C32.2931 29.2886 31.9352 29.6623 31.6497 30.1041C30.8044 31.4156 30.7661 33.0047 31.545 34.3557C32.0361 35.2065 32.7841 35.8193 33.6392 36.1431C33.3276 36.1931 33.0038 36.2041 32.6764 36.1699C31.511 36.0519 30.508 35.4025 29.9226 34.3873C29.4411 33.5536 29.3127 32.5818 29.5623 31.6518ZM32.5304 37.6081C32.7081 37.6251 32.8858 37.6349 33.061 37.6349C34.5034 37.6343 35.8526 37.0324 36.8233 35.9381C37.0449 35.6885 37.0668 35.3216 36.8769 35.0471C36.6883 34.7738 36.337 34.665 36.0255 34.7836C34.8077 35.2485 33.4499 34.7653 32.7957 33.6339C32.2924 32.7612 32.3186 31.7345 32.8645 30.8861C33.4153 30.0329 34.3415 29.5818 35.342 29.6793C35.6743 29.7121 35.9835 29.5137 36.0942 29.2009C36.205 28.8869 36.0864 28.54 35.8069 28.3575C34.2027 27.3107 32.1767 27.2559 30.5195 28.2114C29.351 28.8858 28.5154 29.9752 28.1668 31.2781C27.8174 32.5811 27.9964 33.9419 28.6713 35.1097C29.4916 36.5309 30.8981 37.4426 32.5304 37.6081ZM65.4149 31.4638H65.4167C65.7295 31.4638 66.0083 31.2617 66.1032 30.9641L66.6606 29.2376L67.2187 30.9641C67.3137 31.2617 67.5918 31.4638 67.9051 31.4638H67.9069L69.7205 31.4613L68.2508 32.524C67.9964 32.7083 67.8905 33.0346 67.9879 33.3334L68.5515 35.057L67.0866 33.9883C66.9594 33.8957 66.8103 33.8495 66.6606 33.8495C66.5114 33.8495 66.3623 33.8957 66.2352 33.9883L64.7704 35.057L65.334 33.3334C65.4313 33.0346 65.3254 32.7083 65.071 32.524L63.6012 31.4613L65.4149 31.4638ZM60.9418 31.3195L63.7966 33.3851L62.7018 36.7342C62.6045 37.033 62.7098 37.3592 62.9641 37.5436C63.2173 37.7274 63.5612 37.7274 63.8143 37.5424L66.6607 35.4659L69.5076 37.5424C69.6349 37.6349 69.7839 37.6811 69.933 37.6811C70.0828 37.6811 70.2318 37.6361 70.3578 37.5436C70.6122 37.3592 70.7181 37.033 70.6195 36.7342L69.5245 33.3851L72.3801 31.3195C72.6333 31.1357 72.7404 30.8089 72.643 30.5108C72.5469 30.2132 72.2693 30.0117 71.9565 30.0117C71.9553 30.0117 71.9553 30.0117 71.9547 30.0117L68.431 30.0184L67.3483 26.6657C67.2522 26.3674 66.974 26.1666 66.6606 26.1666C66.3478 26.1666 66.0697 26.3674 65.9735 26.6657L64.8908 30.0184L61.367 30.0117C61.3665 30.0117 61.3665 30.0117 61.3652 30.0117C61.0524 30.0117 60.7749 30.2132 60.6788 30.5108C60.5815 30.8089 60.6886 31.1357 60.9418 31.3195ZM35.3238 52.2234C34.9617 52.3914 34.5319 52.235 34.3641 51.8729C34.1961 51.5108 34.3531 51.0811 34.7139 50.9137C36.7923 49.9472 38.8858 49.5029 40.9392 49.5961C42.9402 49.6862 44.9663 50.2887 46.9618 51.3878C47.3106 51.5795 47.4384 52.0182 47.2454 52.3676C47.114 52.6068 46.8675 52.7424 46.6119 52.7424C46.4944 52.7424 46.3752 52.7139 46.2644 52.6529C42.6093 50.6392 39.0295 50.4986 35.3238 52.2234ZM52.752 52.3676C52.5609 52.0182 52.688 51.5794 53.0374 51.3878C55.0317 50.2886 57.0577 49.6862 59.0588 49.5961C61.1122 49.5036 63.2057 49.9472 65.2834 50.9137C65.6462 51.081 65.802 51.5108 65.6346 51.8729C65.466 52.235 65.0364 52.3914 64.6742 52.2234C60.9684 50.4986 57.3893 50.6393 53.7336 52.6531C53.6228 52.7139 53.5035 52.7425 53.3855 52.7425C53.1305 52.7425 52.884 52.6068 52.752 52.3676ZM36.8453 57.5023C36.7358 57.562 36.617 57.5911 36.5008 57.5911C36.2445 57.5911 35.9969 57.4548 35.8661 57.2138C35.6756 56.8632 35.8046 56.4251 36.1552 56.2339C39.7044 54.3035 43.3322 54.242 46.9369 56.0526C47.293 56.2303 47.4378 56.6648 47.2583 57.0208C47.0793 57.3787 46.6449 57.5217 46.2888 57.3428C43.0875 55.7355 39.9983 55.7873 36.8453 57.5023ZM64.1332 57.2138C64.0024 57.4548 63.7534 57.5911 63.4973 57.5911C63.381 57.5911 63.2623 57.5619 63.1528 57.5023C59.9996 55.7885 56.9104 55.7356 53.7093 57.3428C53.3532 57.5218 52.9188 57.3776 52.7398 57.0208C52.5609 56.6648 52.7051 56.2303 53.0611 56.0526C56.6658 54.242 60.2936 54.3035 63.8429 56.2339C64.1935 56.4251 64.3237 56.8632 64.1332 57.2138ZM47.3148 61.6297C47.2205 62.0181 46.8298 62.2548 46.4427 62.1616C43.5659 61.4635 40.8321 61.6437 38.3168 62.696C38.2255 62.7343 38.1305 62.752 38.0374 62.752C37.7556 62.752 37.4873 62.5852 37.371 62.3089C37.217 61.9413 37.3911 61.5172 37.7593 61.3632C40.5655 60.1892 43.6006 59.9859 46.7835 60.7576C47.1706 60.852 47.4086 61.2433 47.3148 61.6297ZM62.627 62.3089C62.5114 62.5852 62.243 62.752 61.9606 62.752C61.8669 62.752 61.7726 62.7343 61.6819 62.696C59.166 61.6437 56.4322 61.4636 53.5554 62.1616C53.1671 62.2559 52.777 62.0179 52.6839 61.6297C52.5896 61.2433 52.8276 60.852 53.2152 60.7576C56.3969 59.9859 59.4338 60.1892 62.24 61.3632C62.6075 61.5172 62.7809 61.9413 62.627 62.3089ZM64.5227 72.0756L71.3402 52.0079L69.7646 51.1687L63.7931 68.7497C63.7249 68.95 63.5728 69.1106 63.3755 69.1885C63.1783 69.267 62.958 69.2555 62.7712 69.1557C58.228 66.7512 54.1773 66.7652 50.3888 69.1965C50.2707 69.2725 50.135 69.3115 49.9993 69.3115C49.8806 69.3115 49.7613 69.2823 49.6529 69.2227C49.6377 69.2147 49.6244 69.2044 49.6097 69.1952L49.609 69.1965C45.8205 66.7652 41.7698 66.7512 37.2273 69.1557C37.1215 69.2117 37.0058 69.2397 36.8895 69.2397C36.7988 69.2397 36.7082 69.2232 36.623 69.1886C36.4264 69.1107 36.2731 68.9501 36.2061 68.7498L30.2335 51.1687L28.6584 52.0079L35.4746 72.0756L38.0508 70.7131C39.9326 69.7168 44.7532 68.3712 47.3683 69.7721C48.1911 70.2145 48.7418 70.8968 48.9846 71.7665H51.0131C51.2566 70.8968 51.8067 70.2147 52.6307 69.7721C55.2445 68.3711 60.0653 69.7167 61.9471 70.7131L64.5227 72.0756ZM49.277 49.2498C43.4132 44.1103 37.1496 43.1913 30.155 46.4485L37.3065 67.4997C41.5661 65.4627 45.584 65.4092 49.277 67.3347V49.2498ZM49.9994 37.5771C53.6174 37.5771 56.585 40.4119 56.7991 43.9782C54.453 44.7639 52.1841 46.0937 49.9994 47.9651C47.8139 46.0937 45.5451 44.7639 43.1996 43.977C43.4138 40.4118 46.3812 37.5771 49.9994 37.5771ZM46.4159 32.5483C46.4159 30.5734 48.0227 28.9649 49.9994 28.9649C51.9748 28.9649 53.5821 30.5735 53.5821 32.5483C53.5821 34.5244 51.9748 36.1323 49.9994 36.1323C48.0227 36.1323 46.4159 34.5243 46.4159 32.5483ZM69.8424 46.4485C62.8819 43.2071 56.6451 44.1024 50.8051 49.1768L50.8148 49.214L50.7418 49.2322C50.7351 49.2383 50.7278 49.2432 50.7211 49.2487V67.3348C52.5165 66.3981 54.3897 65.9302 56.328 65.9302C58.3784 65.9302 60.5024 66.453 62.6927 67.4998L69.8424 46.4485ZM72.5604 51.0214L70.2356 49.7829L71.4163 46.3067C71.5326 45.9641 71.378 45.588 71.0536 45.4273C66.5792 43.2113 62.2868 42.5955 58.2166 43.5716C57.9013 40.3935 55.778 37.7396 52.8932 36.6574C54.1822 35.7452 55.0269 34.2444 55.0269 32.5483C55.0269 29.7767 52.7715 27.5177 49.9994 27.5177C47.2266 27.5177 44.9712 29.7767 44.9712 32.5483C44.9712 34.2444 45.8159 35.7452 47.1056 36.6574C44.2203 37.7396 42.0969 40.3935 41.7828 43.5711C37.7114 42.5956 33.4201 43.2115 28.9458 45.4273C28.6215 45.588 28.465 45.9641 28.5819 46.3067L29.7626 49.7829L27.4376 51.0214C27.1248 51.1882 26.9793 51.5558 27.0932 51.8911L34.3798 73.3434C34.4486 73.5436 34.6008 73.7042 34.7967 73.7822C34.9945 73.8607 35.2148 73.8485 35.4016 73.7499L38.7269 71.9893C40.3872 71.1111 44.7002 69.9816 46.6855 71.0454C47.2856 71.3679 47.5972 71.8493 47.6683 72.5614C47.7048 72.9302 48.0158 73.2113 48.387 73.2113H51.6107C51.9813 73.2113 52.2929 72.9302 52.3294 72.5614C52.4006 71.8494 52.7135 71.3679 53.3134 71.0454C55.2969 69.9816 59.6118 71.1111 61.2707 71.9893L64.5961 73.7499C64.7007 73.8053 64.8176 73.8334 64.9339 73.8334C65.0246 73.8334 65.1152 73.8164 65.201 73.7823C65.397 73.7044 65.5491 73.5437 65.6179 73.3435L72.9045 51.8912C73.0187 51.5558 72.8732 51.1882 72.5604 51.0214Z" fill="#252525"/>
</svg>
