<svg width="100" height="100" viewBox="0 0 100 100" fill="none" xmlns="http://www.w3.org/2000/svg">
<rect x="1" y="1" width="98" height="98" rx="49" fill="#FFD050"/>
<rect x="1" y="1" width="98" height="98" rx="49" stroke="#1C8E5A" stroke-width="2"/>
<path d="M74.5653 25.0844H25.4349C23.7782 25.0844 22.4297 26.4328 22.4297 28.0895V57.4195V61.4007C22.4297 63.0579 23.7782 64.4064 25.4349 64.4064H42.9096V70.2446H41.3571C39.6642 70.2446 38.2876 71.6219 38.2876 73.3147V74.3024C38.2876 74.6412 38.562 74.915 38.9002 74.915H61.0999C61.4387 74.915 61.7126 74.6412 61.7126 74.3024V73.3147C61.7126 71.6219 60.3353 70.2446 58.6425 70.2446H57.0899V64.4064H74.5647C76.2219 64.4064 77.5698 63.0579 77.5698 61.4007V57.4195V28.0895C77.5704 26.4328 76.2226 25.0844 74.5653 25.0844ZM23.655 28.0895C23.655 27.108 24.4534 26.3097 25.4349 26.3097H74.5647C75.5462 26.3097 76.3451 27.108 76.3451 28.0895V56.8068H41.4637H27.5241H23.655V28.0895ZM60.4872 73.3154V73.6903H39.5129V73.3154C39.5129 72.2983 40.3406 71.4706 41.3571 71.4706H43.5222H56.4773H58.6425C59.6601 71.4706 60.4872 72.2983 60.4872 73.3154ZM55.8646 70.2452H44.1349V64.4071H55.8646V70.2452ZM76.3451 61.4007C76.3451 62.3828 75.5462 63.1811 74.5653 63.1811H56.4773H43.5222H25.4349C24.4534 63.1817 23.655 62.3828 23.655 61.4007V58.0322H27.5241H41.4637H76.3451V61.4007Z" fill="#252525"/>
<path d="M47.9662 61.2199H52.0337C52.3725 61.2199 52.6464 60.9461 52.6464 60.6072C52.6464 60.2684 52.3725 59.9946 52.0337 59.9946H47.9662C47.628 59.9946 47.3535 60.2684 47.3535 60.6072C47.3535 60.9461 47.628 61.2199 47.9662 61.2199Z" fill="#252525"/>
<path d="M28.1376 54.3371V51.0568C28.1376 50.329 28.7196 49.7022 29.521 49.5674L31.2886 49.2697L34.8035 52.8655C34.9187 52.9831 35.0767 53.0499 35.2415 53.0499C35.4064 53.0499 35.5644 52.9837 35.6796 52.8655L39.2203 49.2433L40.1215 49.307C40.5565 49.3377 40.9364 49.6213 41.0901 50.0294L41.4351 50.9478C41.5019 51.1255 41.6464 51.2621 41.8278 51.3178C42.0085 51.3754 42.2064 51.3442 42.3608 51.2339L46.7194 48.1754L48.0054 49.6648L43.3595 53.5069C43.0985 53.7226 43.0623 54.1086 43.278 54.3696C43.3993 54.5154 43.5739 54.5914 43.7504 54.5914C43.8882 54.5914 44.0261 54.5454 44.1406 54.4511L49.2693 50.2107C49.2736 50.2071 49.2755 50.2022 49.2792 50.1985C49.2834 50.1948 49.2896 50.193 49.2939 50.1893L50.0009 49.5374C50.6834 48.9082 50.8053 47.8991 50.3372 47.1278L54.3386 43.7035C54.5953 43.4836 54.626 43.097 54.4054 42.8396C54.1848 42.5823 53.7982 42.5535 53.5415 42.7729L49.4917 46.2382C48.8913 45.8748 48.1157 45.8516 47.4914 46.2314L46.5031 46.8324C46.4976 46.8361 46.4945 46.8423 46.489 46.8459C46.4829 46.8502 46.4755 46.8502 46.47 46.8545L42.3051 49.777L42.2383 49.5987C41.9172 48.744 41.1208 48.1497 40.2091 48.0854L39.0836 48.0088C38.5733 47.923 38.2026 47.5297 38.202 47.0604L38.1959 46.7877C39.1204 45.8675 39.7184 44.6348 39.8311 43.29C39.8311 43.2881 39.8305 43.2863 39.8305 43.2838C39.8305 43.2814 39.8317 43.2802 39.8323 43.2777L39.9867 40.8766C40.8757 39.4975 41.1612 38.2483 40.8249 37.1644C40.5295 36.2142 39.7655 35.414 38.5488 34.7781C38.5996 34.7523 38.6554 34.726 38.716 34.6978C38.9409 34.5949 39.0812 34.3664 39.0726 34.1194C39.0634 33.8725 38.9072 33.655 38.6756 33.568C36.1906 32.6343 33.0273 32.7513 31.4442 35.0623C30.6073 35.403 29.9983 36.0261 29.7164 36.8367C29.317 37.9842 29.6025 39.4105 30.5086 40.8687L30.6551 43.2887C30.7678 44.6342 31.3658 45.8669 32.2903 46.7871L32.2835 47.0738C32.2835 47.5291 31.9129 47.9224 31.4025 48.0082L29.3194 48.3592C27.9256 48.5939 26.9141 49.7286 26.9141 51.0575V54.3377C26.9141 54.6765 27.1885 54.9504 27.5267 54.9504C27.8649 54.9504 28.1376 54.6759 28.1376 54.3371ZM48.1267 47.2779C48.4202 47.0983 48.808 47.1633 49.028 47.428L49.0335 47.4347L49.2326 47.6743C49.4709 47.961 49.4427 48.3831 49.1689 48.6355L48.9269 48.8586L47.7567 47.5027L48.1267 47.2779ZM35.2415 51.5611L32.5635 48.8212C32.9802 48.5326 33.2834 48.1203 33.4201 47.6461C33.7074 47.814 34.0064 47.9659 34.3262 48.0817C34.6203 48.1883 34.9291 48.2422 35.2422 48.2422C35.5552 48.2422 35.8634 48.1883 36.1581 48.0817C36.4785 47.9659 36.7781 47.8133 37.0661 47.6449C37.2033 48.1166 37.5048 48.5253 37.9263 48.8145L35.2415 51.5611ZM30.8719 37.2392C31.0521 36.7209 31.4564 36.3435 32.0415 36.1462C32.1769 36.1002 32.2915 36.0089 32.3669 35.8882C33.0953 34.7119 34.382 34.2426 35.7507 34.2426C36.182 34.2426 36.6219 34.2892 37.0544 34.3749C36.9491 34.5109 36.8798 34.6531 36.8437 34.8038C36.7726 35.1003 36.9307 35.4036 37.2137 35.5163C38.5867 36.0598 39.4071 36.7368 39.6528 37.5278C39.7692 37.9021 39.7625 38.3255 39.6338 38.7942C39.6185 38.7788 39.6026 38.7635 39.586 38.7488C39.371 38.5595 39.0916 38.486 38.8153 38.5374C37.9514 38.6728 36.9993 38.7372 35.8983 38.3169C34.5737 37.7624 32.9054 37.219 31.7413 37.9456C31.3897 38.1649 31.1139 38.4731 30.9112 38.875C30.7255 38.263 30.7096 37.7054 30.8719 37.2392ZM31.7236 40.6953C31.7805 39.8032 32.0036 39.2261 32.3895 38.9853C32.9115 38.66 33.9041 38.8101 35.4425 39.4546C36.7175 39.9417 37.8252 39.9117 38.7712 39.7824C38.7902 39.9301 38.7987 40.1898 38.7724 40.6444V40.645L38.6088 43.1883C38.4667 44.8829 37.3412 46.3515 35.7415 46.9299C35.581 46.9881 35.4131 47.0175 35.2422 47.0175C35.0712 47.0175 34.9027 46.9881 34.7428 46.9299C33.1425 46.3515 32.017 44.8823 31.8761 43.2011L31.7236 40.6953Z" fill="#252525"/>
<path d="M54.849 33.9442H72.1332C72.472 33.9442 72.7459 33.6697 72.7459 33.3315C72.7459 32.9934 72.472 32.7189 72.1332 32.7189H54.849C54.5102 32.7189 54.2363 32.9934 54.2363 33.3315C54.2363 33.6697 54.5102 33.9442 54.849 33.9442Z" fill="#252525"/>
<path d="M54.849 38.8457H72.1332C72.472 38.8457 72.7459 38.5712 72.7459 38.233C72.7459 37.8948 72.472 37.6203 72.1332 37.6203H54.849C54.5102 37.6203 54.2363 37.8948 54.2363 38.233C54.2363 38.5712 54.5102 38.8457 54.849 38.8457Z" fill="#252525"/>
<path d="M72.131 42.5216H58.5228C58.184 42.5216 57.9102 42.7961 57.9102 43.1343C57.9102 43.4725 58.184 43.747 58.5228 43.747H72.131C72.4698 43.747 72.7436 43.4725 72.7436 43.1343C72.7436 42.7961 72.4698 42.5216 72.131 42.5216Z" fill="#252525"/>
<path d="M72.1332 47.4231H54.849C54.5102 47.4231 54.2363 47.6976 54.2363 48.0358C54.2363 48.374 54.5102 48.6484 54.849 48.6484H72.1332C72.472 48.6484 72.7459 48.374 72.7459 48.0358C72.7459 47.6976 72.472 47.4231 72.1332 47.4231Z" fill="#252525"/>
</svg>
