<svg width="100" height="100" viewBox="0 0 100 100" fill="none" xmlns="http://www.w3.org/2000/svg">
<rect x="1" y="1" width="98" height="98" rx="49" fill="#FFD050"/>
<rect x="1" y="1" width="98" height="98" rx="49" stroke="#1C8E5A" stroke-width="2"/>
<g clip-path="url(#clip0_59_489)">
<path d="M70.8165 64.875H65.8902L76.5302 61.375C76.649 61.3347 76.7577 61.2693 76.849 61.1832C76.9403 61.0972 77.012 60.9926 77.0593 60.8764C77.1066 60.7602 77.1284 60.6352 77.1232 60.5099C77.1179 60.3845 77.0858 60.2618 77.029 60.15L75.279 56.65C75.1827 56.4596 75.0202 56.3109 74.822 56.232C74.6238 56.153 74.4035 56.1492 74.2027 56.2212L70.484 57.5512L69.154 54.9262C69.0575 54.7338 68.8935 54.5837 68.6933 54.5046C68.4932 54.4255 68.2709 54.423 68.069 54.4975L67.194 54.8387C66.7155 53.1985 65.7205 51.7565 64.3569 50.727C62.9932 49.6976 61.3338 49.1357 59.6252 49.125H54.2702L53.9377 46.4387C55.2549 45.7813 56.383 44.7994 57.2158 43.5854C58.0485 42.3715 58.5585 40.9655 58.6977 39.5C59.4268 39.611 60.1716 39.4568 60.7966 39.0653C61.4216 38.6738 61.8854 38.071 62.1036 37.3665C62.3219 36.662 62.2801 35.9026 61.9858 35.2263C61.6916 34.55 61.1644 34.0018 60.5002 33.6812C60.859 25.7537 51.934 20.25 45.0215 24.1262C44.8172 24.2423 44.6675 24.4347 44.6051 24.6611C44.5428 24.8876 44.5729 25.1295 44.689 25.3337C44.805 25.5379 44.9974 25.6877 45.2239 25.7501C45.4503 25.8124 45.6922 25.7823 45.8965 25.6662C51.514 22.4987 58.864 26.8737 58.7502 33.375H41.2502C41.2496 32.1517 41.5054 30.9418 42.0013 29.8235C42.4971 28.7052 43.2219 27.7033 44.129 26.8825C44.2538 26.7223 44.319 26.5236 44.3135 26.3206C44.3079 26.1176 44.2318 25.9228 44.0984 25.7697C43.9649 25.6166 43.7824 25.5147 43.582 25.4814C43.3817 25.4482 43.176 25.4857 43.0002 25.5875C41.8685 26.6051 40.9699 27.855 40.3659 29.2519C39.7618 30.6488 39.4665 32.1597 39.5002 33.6812C38.836 34.0018 38.3089 34.55 38.0146 35.2263C37.7204 35.9026 37.6786 36.662 37.8968 37.3665C38.115 38.071 38.5788 38.6738 39.2038 39.0653C39.8289 39.4568 40.5736 39.611 41.3027 39.5C41.4419 40.9655 41.9519 42.3715 42.7847 43.5854C43.6174 44.7994 44.7455 45.7813 46.0627 46.4387L45.7302 49.125H40.3752C38.6777 49.1271 37.0262 49.6777 35.667 50.6947C34.3079 51.7117 33.3137 53.1407 32.8327 54.7687L31.9577 54.4362C31.7557 54.3586 31.5322 54.3586 31.3302 54.4361C31.1282 54.5137 30.9621 54.6634 30.864 54.8562L29.534 57.4812L25.7977 56.1775C25.5969 56.1054 25.3767 56.1093 25.1785 56.1882C24.9803 56.2672 24.8177 56.4158 24.7215 56.6062L22.9715 60.1062C22.9066 60.2198 22.8681 60.3465 22.8587 60.4769C22.8493 60.6074 22.8693 60.7383 22.9171 60.86C22.965 60.9817 23.0395 61.0912 23.1352 61.1803C23.2309 61.2694 23.3454 61.3359 23.4702 61.375L34.1102 64.875H29.0002C20.7927 65.2862 20.9152 76.6787 29.184 77.125H64.0002C64.1666 77.1252 64.3297 77.0781 64.4702 76.9889C64.6107 76.8998 64.723 76.7725 64.7937 76.6218C64.8644 76.4712 64.8907 76.3035 64.8695 76.1385C64.8483 75.9734 64.7805 75.8178 64.674 75.69L57.8752 67.5437L60.6402 66.6687H70.8165C76.749 66.9925 76.9415 75.1037 71.0002 75.4187H66.6252C66.3932 75.4187 66.1706 75.5109 66.0065 75.675C65.8424 75.8391 65.7502 76.0617 65.7502 76.2937C65.7502 76.5258 65.8424 76.7484 66.0065 76.9124C66.1706 77.0765 66.3932 77.1687 66.6252 77.1687H71.0002C79.2252 76.7137 79.0765 65.3125 70.8165 64.875ZM58.7502 35.125C61.0777 34.8537 61.0777 38.0212 58.7502 37.75V35.125ZM41.2502 37.75C38.9227 38.0212 38.9227 34.8537 41.2502 35.125V37.75ZM43.0002 38.625V35.125H57.0002V38.625C56.7027 47.8825 43.2977 47.8825 43.0002 38.625ZM46.5002 50.875C46.7152 50.8765 46.9232 50.7989 47.0846 50.6569C47.246 50.5149 47.3494 50.3184 47.3752 50.105L47.7515 47.0775C49.2318 47.4625 50.7861 47.4625 52.2665 47.0775L52.6252 50.105C52.651 50.3184 52.7545 50.5149 52.9158 50.6569C53.0772 50.7989 53.2852 50.8765 53.5002 50.875H54.2877C54.0869 51.864 53.5503 52.7531 52.7689 53.3918C51.9876 54.0305 51.0094 54.3794 50.0002 54.3794C48.991 54.3794 48.0129 54.0305 47.2315 53.3918C46.4501 52.7531 45.9135 51.864 45.7127 50.875H46.5002ZM40.3752 50.875H43.9452C45.0565 57.8225 54.944 57.8137 56.0552 50.875H59.6252C60.9682 50.8811 62.2726 51.3253 63.3402 52.1402C64.4077 52.9551 65.1802 54.0961 65.5402 55.39L50.0002 61.3137L34.4602 55.3987C34.8121 54.0995 35.5821 52.9524 36.6513 52.1347C37.7205 51.317 39.0292 50.8743 40.3752 50.875ZM32.054 56.3525C32.1852 56.3525 49.4227 63.0725 49.9827 63.125C50.0908 63.1259 50.1979 63.1051 50.2977 63.0637L67.9465 56.3437L68.8215 58.0937L50.0002 64.8225L31.1877 58.1025L32.054 56.3525ZM29.184 75.375C25.2815 75.3225 23.059 70.6587 25.9115 67.9025C26.7314 67.0846 27.8421 66.6252 29.0002 66.625H39.3602L42.1252 67.5L35.589 75.375H29.184ZM37.8727 75.375L43.8752 68.1387L44.829 68.4625L39.089 75.375H37.8727ZM41.3727 75.375L46.6227 69.0487C46.7015 69.0487 50.0177 70.23 49.9827 70.125C49.9827 70.23 53.264 69.0662 53.3427 69.0487L58.5927 75.375H41.3727ZM62.1277 75.375H60.9115L55.1452 68.4625L56.1252 68.1387L62.1277 75.375ZM60.2202 64.875L53.649 67.0712L53.369 67.1587L50.0002 68.375L46.6315 67.2462L46.3515 67.1587L39.7802 64.9625L24.984 59.9925L25.9377 58.085L29.6565 59.415L49.0552 66.345L49.7027 66.5725C49.895 66.642 50.1055 66.642 50.2977 66.5725L74.0627 58.085L75.0165 59.9925L60.2202 64.875Z" fill="#252525"/>
<path d="M50.6219 59.3713C50.7039 59.29 50.769 59.1932 50.8134 59.0866C50.8579 58.9799 50.8807 58.8656 50.8807 58.7501C50.8807 58.6346 50.8579 58.5202 50.8134 58.4136C50.769 58.3069 50.7039 58.2102 50.6219 58.1288C50.5406 58.0468 50.4438 57.9817 50.3372 57.9373C50.2305 57.8929 50.1162 57.87 50.0007 57.87C49.8851 57.87 49.7708 57.8929 49.6641 57.9373C49.5575 57.9817 49.4607 58.0468 49.3794 58.1288C49.2146 58.2936 49.1221 58.5171 49.1221 58.7501C49.1221 58.9831 49.2146 59.2066 49.3794 59.3713C49.5442 59.5361 49.7676 59.6287 50.0007 59.6287C50.2337 59.6287 50.4571 59.5361 50.6219 59.3713Z" fill="#252525"/>
</g>
<defs>
<clipPath id="clip0_59_489">
<rect width="56" height="56" fill="white" transform="translate(22 22)"/>
</clipPath>
</defs>
</svg>
