<svg width="100" height="100" viewBox="0 0 100 100" fill="none" xmlns="http://www.w3.org/2000/svg">
<rect x="1" y="1" width="98" height="98" rx="49" fill="#FFD050"/>
<rect x="1" y="1" width="98" height="98" rx="49" stroke="#1C8E5A" stroke-width="2"/>
<g clip-path="url(#clip0_61_2412)">
<path d="M70.8155 64.875H65.8892L76.5292 61.375C76.648 61.3347 76.7567 61.2693 76.848 61.1832C76.9393 61.0972 77.0111 60.9926 77.0584 60.8764C77.1057 60.7602 77.1274 60.6352 77.1222 60.5099C77.117 60.3845 77.0848 60.2618 77.028 60.15L75.278 56.65C75.1817 56.4596 75.0192 56.3109 74.821 56.232C74.6228 56.153 74.4026 56.1492 74.2017 56.2212L70.483 57.5512L69.153 54.9262C69.0565 54.7338 68.8925 54.5837 68.6924 54.5046C68.4922 54.4255 68.2699 54.423 68.068 54.4975L67.193 54.8387C66.7145 53.1985 65.7195 51.7565 64.3559 50.727C62.9922 49.6976 61.3328 49.1357 59.6242 49.125H54.2692L53.9367 46.4387C55.2539 45.7813 56.382 44.7994 57.2148 43.5854C58.0476 42.3715 58.5576 40.9655 58.6967 39.5C59.4258 39.611 60.1706 39.4568 60.7956 39.0653C61.4206 38.6738 61.8844 38.071 62.1027 37.3665C62.3209 36.662 62.2791 35.9026 61.9848 35.2263C61.6906 34.55 61.1635 34.0018 60.4992 33.6812C60.858 25.7537 51.933 20.25 45.0205 24.1262C44.8163 24.2423 44.6665 24.4347 44.6042 24.6611C44.5418 24.8876 44.572 25.1295 44.688 25.3337C44.804 25.5379 44.9964 25.6877 45.2229 25.7501C45.4493 25.8124 45.6913 25.7823 45.8955 25.6662C51.513 22.4987 58.863 26.8737 58.7492 33.375H41.2492C41.2486 32.1517 41.5044 30.9418 42.0003 29.8235C42.4961 28.7052 43.221 27.7033 44.128 26.8825C44.2528 26.7223 44.3181 26.5236 44.3125 26.3206C44.3069 26.1176 44.2309 25.9228 44.0974 25.7697C43.964 25.6166 43.7814 25.5147 43.581 25.4814C43.3807 25.4482 43.175 25.4857 42.9992 25.5875C41.8676 26.6051 40.969 27.855 40.3649 29.2519C39.7608 30.6488 39.4656 32.1597 39.4992 33.6812C38.835 34.0018 38.3079 34.55 38.0136 35.2263C37.7194 35.9026 37.6776 36.662 37.8958 37.3665C38.1141 38.071 38.5778 38.6738 39.2029 39.0653C39.8279 39.4568 40.5726 39.611 41.3017 39.5C41.4409 40.9655 41.9509 42.3715 42.7837 43.5854C43.6164 44.7994 44.7446 45.7813 46.0617 46.4387L45.7292 49.125H40.3742C38.6767 49.1271 37.0252 49.6777 35.6661 50.6947C34.3069 51.7117 33.3127 53.1407 32.8317 54.7687L31.9567 54.4362C31.7548 54.3586 31.5312 54.3586 31.3292 54.4361C31.1272 54.5137 30.9611 54.6634 30.863 54.8562L29.533 57.4812L25.7967 56.1775C25.5959 56.1054 25.3757 56.1093 25.1775 56.1882C24.9793 56.2672 24.8168 56.4158 24.7205 56.6062L22.9705 60.1062C22.9057 60.2198 22.8671 60.3465 22.8577 60.4769C22.8483 60.6074 22.8683 60.7383 22.9161 60.86C22.964 60.9817 23.0385 61.0912 23.1342 61.1803C23.2299 61.2694 23.3444 61.3359 23.4692 61.375L34.1092 64.875H28.9992C20.7917 65.2862 20.9142 76.6787 29.183 77.125H63.9992C64.1657 77.1252 64.3287 77.0781 64.4692 76.9889C64.6098 76.8998 64.722 76.7725 64.7927 76.6218C64.8634 76.4712 64.8897 76.3035 64.8685 76.1385C64.8473 75.9734 64.7795 75.8178 64.673 75.69L57.8742 67.5437L60.6392 66.6687H70.8155C76.748 66.9925 76.9405 75.1037 70.9992 75.4187H66.6242C66.3922 75.4187 66.1696 75.5109 66.0055 75.675C65.8414 75.8391 65.7492 76.0617 65.7492 76.2937C65.7492 76.5258 65.8414 76.7484 66.0055 76.9124C66.1696 77.0765 66.3922 77.1687 66.6242 77.1687H70.9992C79.2242 76.7137 79.0755 65.3125 70.8155 64.875ZM58.7492 35.125C61.0767 34.8537 61.0767 38.0212 58.7492 37.75V35.125ZM41.2492 37.75C38.9217 38.0212 38.9217 34.8537 41.2492 35.125V37.75ZM42.9992 38.625V35.125H56.9992V38.625C56.7017 47.8825 43.2967 47.8825 42.9992 38.625ZM46.4992 50.875C46.7142 50.8765 46.9222 50.7989 47.0836 50.6569C47.245 50.5149 47.3484 50.3184 47.3742 50.105L47.7505 47.0775C49.2309 47.4625 50.7851 47.4625 52.2655 47.0775L52.6242 50.105C52.65 50.3184 52.7535 50.5149 52.9149 50.6569C53.0763 50.7989 53.2843 50.8765 53.4992 50.875H54.2867C54.0859 51.864 53.5494 52.7531 52.768 53.3918C51.9866 54.0305 51.0084 54.3794 49.9992 54.3794C48.9901 54.3794 48.0119 54.0305 47.2305 53.3918C46.4491 52.7531 45.9126 51.864 45.7117 50.875H46.4992ZM40.3742 50.875H43.9442C45.0555 57.8225 54.943 57.8137 56.0542 50.875H59.6242C60.9673 50.8811 62.2716 51.3253 63.3392 52.1402C64.4067 52.9551 65.1792 54.0961 65.5392 55.39L49.9992 61.3137L34.4592 55.3987C34.8111 54.0995 35.5812 52.9524 36.6503 52.1347C37.7195 51.317 39.0282 50.8743 40.3742 50.875ZM32.053 56.3525C32.1842 56.3525 49.4217 63.0725 49.9817 63.125C50.0898 63.1259 50.1969 63.1051 50.2967 63.0637L67.9455 56.3437L68.8205 58.0937L49.9992 64.8225L31.1867 58.1025L32.053 56.3525ZM29.183 75.375C25.2805 75.3225 23.058 70.6587 25.9105 67.9025C26.7304 67.0846 27.8412 66.6252 28.9992 66.625H39.3592L42.1242 67.5L35.588 75.375H29.183ZM37.8717 75.375L43.8742 68.1387L44.828 68.4625L39.088 75.375H37.8717ZM41.3717 75.375L46.6217 69.0487C46.7005 69.0487 50.0167 70.23 49.9817 70.125C49.9817 70.23 53.263 69.0662 53.3417 69.0487L58.5917 75.375H41.3717ZM62.1267 75.375H60.9105L55.1442 68.4625L56.1242 68.1387L62.1267 75.375ZM60.2192 64.875L53.648 67.0712L53.368 67.1587L49.9992 68.375L46.6305 67.2462L46.3505 67.1587L39.7792 64.9625L24.983 59.9925L25.9367 58.085L29.6555 59.415L49.0542 66.345L49.7017 66.5725C49.894 66.642 50.1045 66.642 50.2967 66.5725L74.0617 58.085L75.0155 59.9925L60.2192 64.875Z" fill="#252525"/>
<path d="M50.6209 59.3713C50.7029 59.29 50.768 59.1932 50.8125 59.0866C50.8569 58.9799 50.8797 58.8656 50.8797 58.7501C50.8797 58.6346 50.8569 58.5202 50.8125 58.4136C50.768 58.3069 50.7029 58.2102 50.6209 58.1288C50.5396 58.0468 50.4428 57.9817 50.3362 57.9373C50.2295 57.8929 50.1152 57.87 49.9997 57.87C49.8842 57.87 49.7698 57.8929 49.6632 57.9373C49.5565 57.9817 49.4598 58.0468 49.3784 58.1288C49.2137 58.2936 49.1211 58.5171 49.1211 58.7501C49.1211 58.9831 49.2137 59.2066 49.3784 59.3713C49.5432 59.5361 49.7667 59.6287 49.9997 59.6287C50.2327 59.6287 50.4562 59.5361 50.6209 59.3713Z" fill="#252525"/>
</g>
<defs>
<clipPath id="clip0_61_2412">
<rect width="56" height="56" fill="white" transform="translate(22 22)"/>
</clipPath>
</defs>
</svg>
