<svg width="24" height="24" viewBox="0 0 24 24" fill="none" xmlns="http://www.w3.org/2000/svg">
<path d="M4.99934 7.75C4.8511 7.75013 4.70622 7.79419 4.58301 7.87661C4.45979 7.95903 4.36377 8.07611 4.30705 8.21308C4.25034 8.35004 4.23549 8.50074 4.26438 8.64614C4.29326 8.79154 4.36458 8.92511 4.46934 9.03L11.4693 16.03C11.61 16.1705 11.8006 16.2493 11.9993 16.2493C12.1981 16.2493 12.3887 16.1705 12.5293 16.03L19.5293 9.03C19.6341 8.92511 19.7054 8.79154 19.7343 8.64614C19.7632 8.50074 19.7483 8.35004 19.6916 8.21308C19.6349 8.07611 19.5389 7.95903 19.4157 7.87661C19.2925 7.79419 19.1476 7.75013 18.9993 7.75H4.99934Z" fill="#9F9F9F"/>
</svg>
