<svg width="104" height="37" viewBox="0 0 104 37" fill="none" xmlns="http://www.w3.org/2000/svg">
<circle cx="18.1736" cy="18.1736" r="18.1736" fill="#3543DE"/>
<path d="M13.5717 8.67285H18.329V22.1438H23.6446V25.7845H13.5717V8.67285Z" fill="#FEFEFF"/>
<path d="M103.669 18.1631C103.669 22.7286 100.239 25.9398 95.9136 25.9398C91.6321 25.9398 88.1588 22.7286 88.1588 18.1631C88.1588 13.6194 91.6321 10.4082 95.9136 10.4082C100.239 10.4082 103.669 13.6194 103.669 18.1631ZM90.7146 18.1631C90.7146 21.5927 92.8991 23.7772 95.9136 23.7772C98.9282 23.7772 101.113 21.5927 101.113 18.1631C101.113 14.7335 98.9282 12.5927 95.9136 12.5927C92.8991 12.5927 90.7146 14.7335 90.7146 18.1631Z" fill="#3543DE"/>
<path d="M78.7157 10.4082C81.8832 10.4082 84.6138 12.0029 85.7715 14.9738H82.7788C81.9706 13.4446 80.5288 12.6801 78.7157 12.6801C75.7011 12.6801 73.5166 14.8208 73.5166 18.1631C73.5166 21.5053 75.7011 23.6679 78.7157 23.6679C81.4681 23.6679 83.1939 22.0078 83.5652 19.4519H77.8637V17.464H86.2303V19.4082C85.7715 22.9252 82.8007 25.918 78.7157 25.918C74.4341 25.918 70.9608 22.7286 70.9608 18.1631C70.9608 13.6194 74.4341 10.4082 78.7157 10.4082Z" fill="#3543DE"/>
<path d="M69.037 18.1631C69.037 22.7286 65.6074 25.9398 61.2821 25.9398C57.0005 25.9398 53.5272 22.7286 53.5272 18.1631C53.5272 13.6194 57.0005 10.4082 61.2821 10.4082C65.6074 10.4082 69.037 13.6194 69.037 18.1631ZM56.0831 18.1631C56.0831 21.5927 58.2675 23.7772 61.2821 23.7772C64.2967 23.7772 66.4811 21.5927 66.4811 18.1631C66.4811 14.7335 64.2967 12.5927 61.2821 12.5927C58.2675 12.5927 56.0831 14.7335 56.0831 18.1631Z" fill="#3543DE"/>
<path d="M44.3471 10.6045H46.8374V23.7769H51.9709V25.7866H44.3471V10.6045Z" fill="#3543DE"/>
</svg>
