<svg width="56" height="56" viewBox="0 0 56 56" fill="none" xmlns="http://www.w3.org/2000/svg">
<rect width="56" height="56" rx="28" fill="#1C8E5A"/>
<path d="M38.4683 32.5641L34.9123 32.1581C34.4942 32.109 34.0704 32.1553 33.6727 32.2935C33.2751 32.4317 32.9139 32.6583 32.6163 32.9561L30.0403 35.5321C26.066 33.5108 22.8356 30.2805 20.8143 26.3061L23.4043 23.7161C24.0063 23.1141 24.3003 22.2741 24.2023 21.4201L23.7963 17.8921C23.717 17.2092 23.3892 16.5793 22.8755 16.1223C22.3617 15.6654 21.6979 15.4133 21.0103 15.4141H18.5883C17.0063 15.4141 15.6903 16.7301 15.7883 18.3121C16.5303 30.2681 26.0923 39.8161 38.0343 40.5581C39.6163 40.6561 40.9323 39.3401 40.9323 37.7581V35.3361C40.9463 33.9221 39.8823 32.7321 38.4683 32.5641Z" fill="white"/>
</svg>
