<svg width="100" height="100" viewBox="0 0 100 100" fill="none" xmlns="http://www.w3.org/2000/svg">
<rect x="1" y="1" width="98" height="98" rx="49" fill="#FFD050"/>
<rect x="1" y="1" width="98" height="98" rx="49" stroke="#1C8E5A" stroke-width="2"/>
<path d="M73.4804 28.306V27.6101C73.4804 26.0631 72.2218 24.8046 70.6752 24.8046H55.361C52.9959 24.8046 50.9551 26.1967 49.9994 28.2015C49.0435 26.1967 47.003 24.8046 44.6383 24.8046H29.3238C27.7771 24.8046 26.5185 26.0631 26.5185 27.6101V28.305C23.9788 28.8886 22.1211 31.1812 22.1211 33.835V63.4141V63.4158C22.1211 66.5441 24.6632 69.0891 27.7878 69.0891H45.0883C44.8509 70.5244 43.9682 72.9456 42.0911 74.0338H38.7385C38.4175 74.0338 38.1578 74.2939 38.1578 74.6146C38.1578 74.9354 38.4175 75.1954 38.7385 75.1954H61.2604C61.5814 75.1954 61.8412 74.9353 61.8412 74.6146C61.8412 74.2939 61.5814 74.0338 61.2604 74.0338H57.9078C56.0322 72.9461 55.1484 70.5248 54.9106 69.0891H72.2048C75.3328 69.0891 77.8777 66.5441 77.8777 63.4158V63.4141C77.8777 54.7528 77.8777 42.4653 77.8777 33.835C77.8778 31.1876 76.02 28.8951 73.4804 28.306ZM72.2048 67.9261C63.5531 67.9261 36.0944 67.9261 27.7878 67.9261C25.3036 67.9261 23.2827 65.9021 23.2827 63.4142V61.796H76.7162V63.4142C76.7162 65.902 74.6925 67.9261 72.2048 67.9261ZM50.5802 30.7467C50.5802 28.1106 52.7248 25.9661 55.361 25.9661H70.6751C71.5815 25.9661 72.3188 26.7038 72.3188 27.6101V28.7882V53.7246C72.3188 54.5759 71.6163 55.3706 70.6751 55.3706H55.361C53.4375 55.3706 51.6574 56.2736 50.5802 57.7029V30.747V30.7467ZM27.6801 27.6101C27.6801 26.7038 28.4174 25.9661 29.3238 25.9661H44.6383C47.2741 25.9661 49.4186 28.1106 49.4186 30.7469V57.7027C48.3518 56.287 46.5732 55.3704 44.6383 55.3704H29.3238C28.4125 55.3704 27.6801 54.6261 27.6801 53.7244C27.6801 45.5965 27.6801 35.0414 27.6801 27.6101ZM26.5185 29.5045V53.7245V53.7265C26.5185 55.2755 27.7799 56.5332 29.3273 56.5332H44.6374C47.0777 56.5332 49.0912 58.2577 49.38 60.6342H23.2828V33.835C23.2828 31.8158 24.6338 30.0593 26.5185 29.5045ZM56.0468 74.0338H43.9527C45.3917 72.5415 46.0752 70.4218 46.2631 69.0891H53.7357C53.9243 70.4218 54.6078 72.5417 56.0468 74.0338ZM76.7162 60.6343H50.6224C50.9062 58.2934 52.8837 56.5333 55.3617 56.5333H70.6779C72.2775 56.5333 73.4804 55.1766 73.4804 53.7266V53.7246V29.5063C75.3652 30.0655 76.7162 31.8212 76.7162 33.835V60.6343Z" fill="#252525"/>
<path d="M46.2428 64.2804H44.3269C44.0059 64.2804 43.7461 64.5405 43.7461 64.8612C43.7461 65.1819 44.0059 65.442 44.3269 65.442H46.2428C46.5638 65.442 46.8236 65.1819 46.8236 64.8612C46.8236 64.5405 46.5638 64.2804 46.2428 64.2804Z" fill="#252525"/>
<path d="M50.9571 64.2804H49.0417C48.7207 64.2804 48.4609 64.5405 48.4609 64.8612C48.4609 65.1819 48.7207 65.442 49.0417 65.442H50.9571C51.2781 65.442 51.5379 65.1819 51.5379 64.8612C51.5379 64.5405 51.2781 64.2804 50.9571 64.2804Z" fill="#252525"/>
<path d="M55.6719 64.2804H53.7566C53.4355 64.2804 53.1758 64.5405 53.1758 64.8612C53.1758 65.1819 53.4355 65.442 53.7566 65.442H55.6719C55.993 65.442 56.2527 65.1819 56.2527 64.8612C56.2527 64.5405 55.993 64.2804 55.6719 64.2804Z" fill="#252525"/>
<path d="M31.8152 31.1457H44.6381C44.9591 31.1457 45.2188 30.8856 45.2188 30.5649C45.2188 30.2442 44.9591 29.9841 44.6381 29.9841H31.8152C31.4941 29.9841 31.2344 30.2442 31.2344 30.5649C31.2344 30.8856 31.4941 31.1457 31.8152 31.1457Z" fill="#252525"/>
<path d="M31.8152 35.7734H44.6381C44.9591 35.7734 45.2188 35.5133 45.2188 35.1926C45.2188 34.8719 44.9591 34.6118 44.6381 34.6118H31.8152C31.4941 34.6118 31.2344 34.8719 31.2344 35.1926C31.2344 35.5133 31.4941 35.7734 31.8152 35.7734Z" fill="#252525"/>
<path d="M31.8152 40.4008H44.6381C44.9591 40.4008 45.2188 40.1407 45.2188 39.82C45.2188 39.4992 44.9591 39.2393 44.6381 39.2393H31.8152C31.4941 39.2393 31.2344 39.4994 31.2344 39.82C31.2344 40.1407 31.4941 40.4008 31.8152 40.4008Z" fill="#252525"/>
<path d="M31.8152 45.0281H44.6381C44.9591 45.0281 45.2188 44.768 45.2188 44.4474C45.2188 44.1267 44.9591 43.8666 44.6381 43.8666H31.8152C31.4941 43.8666 31.2344 44.1267 31.2344 44.4474C31.2344 44.768 31.4941 45.0281 31.8152 45.0281Z" fill="#252525"/>
<path d="M31.8152 49.6558H44.6381C44.9591 49.6558 45.2188 49.3957 45.2188 49.075C45.2188 48.7544 44.9591 48.4943 44.6381 48.4943H31.8152C31.4941 48.4943 31.2344 48.7544 31.2344 49.075C31.2344 49.3957 31.4941 49.6558 31.8152 49.6558Z" fill="#252525"/>
<path d="M55.3601 31.1457H68.1824C68.5035 31.1457 68.7632 30.8856 68.7632 30.5649C68.7632 30.2442 68.5035 29.9841 68.1824 29.9841H55.3601C55.0391 29.9841 54.7793 30.2442 54.7793 30.5649C54.7793 30.8856 55.0391 31.1457 55.3601 31.1457Z" fill="#252525"/>
<path d="M55.3601 35.7734H68.1824C68.5035 35.7734 68.7632 35.5133 68.7632 35.1926C68.7632 34.8719 68.5035 34.6118 68.1824 34.6118H55.3601C55.0391 34.6118 54.7793 34.8719 54.7793 35.1926C54.7793 35.5133 55.0391 35.7734 55.3601 35.7734Z" fill="#252525"/>
<path d="M55.3601 40.4008H68.1824C68.5035 40.4008 68.7632 40.1407 68.7632 39.82C68.7632 39.4992 68.5035 39.2392 68.1824 39.2392H55.3601C55.0391 39.2392 54.7793 39.4993 54.7793 39.82C54.7793 40.1407 55.0391 40.4008 55.3601 40.4008Z" fill="#252525"/>
<path d="M55.3601 45.0281H68.1824C68.5035 45.0281 68.7632 44.768 68.7632 44.4474C68.7632 44.1267 68.5035 43.8666 68.1824 43.8666H55.3601C55.0391 43.8666 54.7793 44.1267 54.7793 44.4474C54.7793 44.768 55.0391 45.0281 55.3601 45.0281Z" fill="#252525"/>
<path d="M55.3601 49.6559H68.1824C68.5035 49.6559 68.7632 49.3958 68.7632 49.0751C68.7632 48.7544 68.5035 48.4943 68.1824 48.4943H55.3601C55.0391 48.4943 54.7793 48.7544 54.7793 49.0751C54.7793 49.3958 55.0391 49.6559 55.3601 49.6559Z" fill="#252525"/>
</svg>
