<svg width="270" height="221" viewBox="0 0 270 221" fill="none" xmlns="http://www.w3.org/2000/svg">
<path fill-rule="evenodd" clip-rule="evenodd" d="M98.1578 2.1025C94.7469 8.00758 90.2998 12.997 80.761 21.6211C61.2575 39.2535 56.9244 48.7481 58.1156 71.2472C60.1901 110.437 105.53 117.56 123.122 81.4606L124.275 79.0934L122.935 80.5998C117.328 86.9019 115.567 88.6859 113.167 90.5033C94.7684 104.431 70.7951 96.6892 63.176 74.359C58.3265 60.144 64.1831 47.2729 83.3434 30.0386C89.0925 24.8674 95.528 18.3146 97.6198 15.5019C100.798 11.228 100.962 11.3937 99.8643 17.7819C98.2751 27.0377 95.1041 33.923 88.8202 41.767C86.3993 44.7884 83.9277 47.9346 83.3262 48.7588C80.3209 52.8778 79.7829 57.1215 81.6229 62.1755L82.672 65.0559L81.2861 68.4453C79.43 72.986 79.9519 74.5215 83.9707 76.3474C88.2543 78.2928 90.4934 77.389 92.1128 73.0592C93.5589 69.191 93.6343 69.4094 90.8582 69.4094C86.3917 69.4094 83.082 66.8604 83.4392 63.6948C83.7727 60.7379 88.4124 53.15 91.5253 50.4718C92.6842 49.4744 97.1356 42.6127 98.6441 39.4967C104.502 27.3971 105.273 12.6935 100.581 2.59961L99.3715 0L98.1578 2.1025ZM132.839 2.75994C125.18 5.06795 116.484 8.02802 116.484 8.32715C116.484 8.51222 117.114 8.46703 117.883 8.22708C118.652 7.98714 119.863 7.63851 120.573 7.45129C129.394 5.13359 136.283 2.86539 136.283 2.27789C136.283 1.72913 136.245 1.73344 132.839 2.75994ZM166.862 7.43945C160.18 21.1143 164.482 41.9521 177.17 57.3582C178.047 58.4235 179.601 60.6508 180.622 62.3078C181.643 63.9648 182.822 65.708 183.239 66.1814C185.674 68.9413 187.93 76.2312 187.334 79.4086C186.538 83.6545 180.038 86.8481 174.337 85.7947C171.329 85.2384 171.288 85.2018 172.029 83.7223C172.356 83.0703 172.703 82.3644 172.801 82.1546C172.898 81.9448 172.062 82.4031 170.943 83.1736C168.565 84.8101 168.01 84.6681 164.865 81.6134C159.922 76.8144 159.195 71.0836 163.344 69.6364C169.216 67.5877 173.512 71.131 173.512 78.0228V81.3347L174.253 80.1156C179.178 72.0155 178.968 65.4486 173.697 62.7231C165.886 58.6838 153.9 73.807 157.153 83.5986C157.558 84.8198 157.776 85.9346 157.637 86.0734C157.402 86.3079 151.825 85.0243 146.182 83.4372C135.805 80.5191 129.003 84.4185 123.031 96.7096C119.161 104.673 119.912 108.302 127.644 119.028C133.014 126.475 134.964 130.041 138.054 138.058C140.238 143.725 140.851 152.934 139.51 159.938C138.596 164.72 138.723 165.141 140.114 161.929C146.973 146.093 144.362 129.622 132.272 112.457C121.58 97.2745 122.748 89.8534 135.828 89.8534C139.531 89.8534 140.52 90.0438 145.751 91.76C152.794 94.0702 157.756 94.3295 161.995 92.609L164.339 91.6578L166.247 92.5842C173.148 95.9381 181.964 91.2295 187.671 81.1421C193.01 71.7045 192.577 65.8747 185.85 56.7072C184.035 54.2346 181.679 51.027 180.614 49.5798C171.175 36.7615 168.573 30.8134 167.46 19.51C167.067 15.5245 167.397 15.6127 170.986 20.4515C172.609 22.6411 178.075 28.6388 183.131 33.7788C201.689 52.6475 206.265 61.9592 204.122 76.4938C203.295 82.104 203.402 82.4139 204.832 78.5554C210.166 64.165 207.585 49.4529 197.638 37.5599C196.747 36.4946 191.893 31.4374 186.852 26.3211C177.992 17.33 173.257 11.638 170.329 6.46352C168.599 3.40446 168.872 3.32806 166.862 7.43945ZM198.906 8.71235C198.432 8.91141 196.883 9.39776 195.462 9.79373C194.042 10.1897 192.396 10.6804 191.804 10.8848C191.212 11.0892 188.501 11.9468 185.778 12.7925C178.381 15.0887 177.23 16.0883 184.29 14.0848C198.618 10.0197 199.982 9.56992 199.982 8.91249C199.982 8.5714 199.933 8.30563 199.874 8.32177C199.815 8.33791 199.379 8.5133 198.906 8.71235ZM127.602 13.3736C121.751 23.899 121.998 32.2035 128.751 52.0869C132.889 64.2704 133.867 68.9048 133.611 75.1111C133.436 79.3559 133.477 79.6766 134.101 78.9858C139.329 73.2044 138.894 62.6112 132.664 43.9534C127.52 28.5484 126.408 20.8948 128.299 13.9084C129.1 10.9461 128.997 10.8665 127.602 13.3736ZM147.473 25.8422C145.105 26.5997 144.289 28.9024 145.815 30.525C147.103 31.8969 146.588 32.3832 140.861 35.2131C138.248 36.5032 136.453 37.5599 136.872 37.5599C138.326 37.5599 143.92 34.9387 145.678 33.4334C147.139 32.1831 147.593 31.9991 148.292 32.3725C149.299 32.9115 150.026 31.4611 149.23 30.5002C148.951 30.1656 148.871 29.1595 149.029 28.0039C149.304 25.9918 148.874 25.3935 147.473 25.8422ZM107.707 27.0506C107.271 28.1868 107.382 28.4246 109.167 30.1925C110.463 31.4751 110.897 32.252 110.919 33.3301C110.991 36.7486 111.878 36.8357 113.246 33.5593C114.086 31.5526 114.08 31.0877 113.231 32.2993C112.465 33.3936 111.75 33.5507 111.75 32.6253C111.75 29.3414 108.531 24.9029 107.707 27.0506ZM147.903 28.3063C147.903 29.5534 147.399 29.6771 146.396 28.6743C145.823 28.1018 145.798 27.8963 146.257 27.6047C147.288 26.9516 147.903 27.2131 147.903 28.3063ZM115.239 28.8862C114.067 30.5325 114.083 30.9403 115.274 29.8299C116.399 28.7808 116.644 28.7539 117.345 29.5975C118.176 30.5982 118.707 30.3625 118.558 29.0595C118.352 27.2809 116.453 27.1819 115.239 28.8862ZM145.343 39.4353C145.151 39.9421 144.482 41.5723 143.856 43.0571C143.045 44.9842 142.834 45.9709 143.123 46.5003C143.823 47.7926 145.907 49.5411 147.58 50.2394C149.517 51.0486 149.495 50.672 147.848 54.6252C146.016 59.0271 147.476 61.5568 152.382 62.4724C156.471 63.2375 157.349 62.7436 158.815 58.856C160.284 54.9609 160.279 54.9372 158.205 55.1352C155.995 55.3461 153.144 54.2755 151.587 52.6507C150.225 51.2293 150.424 50.4718 152.16 50.4718C153.476 50.4718 153.667 50.1964 155.418 45.7708C156.762 42.3728 156.776 42.5643 155.205 42.8785C152.74 43.3713 149.716 42.3674 147.621 40.3607C145.782 38.5982 145.678 38.5562 145.343 39.4353ZM78.34 42.0199C72.0347 49.2258 68.2482 60.5755 71.3191 63.0621C72.9568 64.3877 75.3563 63.3451 76.7164 60.7164C77.6482 58.9152 77.4351 58.5375 76.0611 59.5522C74.4621 60.7347 72.7169 60.4065 72.3263 58.8495C71.7786 56.6685 72.9331 53.6363 77.6062 44.9842C79.3332 41.7853 79.6441 40.5285 78.34 42.0199ZM111.319 43.0227C111.319 43.2379 111.481 43.5973 111.678 43.8222C112.217 44.4387 112.975 47.3783 113.293 50.0866C113.526 52.0837 113.772 52.6152 114.714 53.1726C122.518 57.7822 127.414 70.1561 124.458 77.8022C124.13 78.649 124.136 78.649 124.781 77.7914C127.866 73.6865 128.947 61.0005 126.674 55.5871C124.442 50.276 118.785 44.7841 114.3 43.5768C113.341 43.3186 112.278 43.0001 111.938 42.8699C111.598 42.7397 111.319 42.8086 111.319 43.0227ZM141.291 65.3798C139.84 66.8302 139.716 69.7107 141.03 71.4871C141.859 72.6083 141.868 72.7407 141.2 74.0782C140.276 75.9321 140.675 76.2301 142.276 74.883C142.988 74.2837 144.728 73.0893 146.144 72.2307C148.507 70.7942 149.68 69.3201 148.999 68.6401C148.848 68.4894 148.298 68.6368 147.776 68.9672C144.118 71.2838 141.109 70.8566 141.522 68.0784C141.749 66.5483 142.964 66.0544 144.435 66.8959C145.827 67.691 146.182 67.5479 146.182 66.1954C146.182 63.9874 143.183 63.4871 141.291 65.3798ZM115.731 64.9601C115.435 65.0796 115.193 65.3658 115.193 65.5971C115.193 65.8285 115.395 65.892 115.643 65.7392C115.889 65.5864 116.379 65.6994 116.728 65.991C117.49 66.6226 117.982 66.2653 117.627 65.3389C117.372 64.6761 116.746 64.5502 115.731 64.9601ZM114.339 66.8593C114.331 68.1935 115.956 69.8398 117.28 69.8398C118.574 69.8398 117.782 68.2409 116.388 68.0407C115.861 67.9654 115.185 67.4188 114.887 66.827L114.345 65.751L114.339 66.8593ZM104.506 68.8047C103.343 69.6181 103.289 72.8504 104.433 73.1958C104.954 73.3529 104.975 73.2808 104.541 72.8203C104.245 72.5072 104.003 71.6959 104.003 71.018C104.003 69.1404 106.662 69.4255 107.07 71.3462C107.323 72.5384 107.348 72.5029 107.395 70.8943C107.472 68.2785 106.382 67.4909 104.506 68.8047ZM106.132 73.7467C105.79 74.2245 104.261 75.4769 102.735 76.5314C99.3005 78.904 100.022 78.9686 105.079 76.738C105.552 76.5293 106.23 76.2635 106.585 76.1462C106.983 76.0149 106.859 75.9203 106.262 75.8998C105.053 75.8568 105.046 75.5394 106.228 74.2804C106.742 73.7338 107.07 73.1948 106.958 73.0829C106.848 72.971 106.475 73.2701 106.132 73.7467ZM190.419 83.0746C185.579 88.6192 184.542 99.2533 189.257 94.9859C190.414 93.94 190.391 92.8812 189.228 93.6075C186.458 95.3377 186.562 91.4986 189.435 85.9615C191.395 82.1804 191.521 81.8124 190.419 83.0746ZM198.294 90.7367C198.275 90.9853 196.612 92.9555 194.596 95.115C183.791 106.695 169.182 115.278 155.274 118.218L150.808 119.162L156.03 119.742C163.706 120.597 167.503 120.203 170.855 118.206C180.581 112.413 187.133 106.95 192.729 99.9677C195.441 96.5837 198.76 91.3511 198.541 90.8078C198.424 90.5194 198.313 90.4871 198.294 90.7367ZM151.346 103.395C151.346 103.859 152.09 104.974 152.999 105.875C154.35 107.211 154.707 107.926 154.953 109.78C155.295 112.361 155.634 112.352 156.904 109.728C157.849 107.778 158.176 105.882 157.258 107.68C156.563 109.043 155.65 109.333 155.65 108.194C155.65 106.156 153.603 102.55 152.446 102.55C151.64 102.55 151.346 102.776 151.346 103.395ZM159.491 104.239C158.799 104.931 158.233 105.719 158.233 105.991C158.233 106.286 158.506 106.213 158.91 105.809C159.783 104.935 161.097 104.943 161.591 105.825C161.941 106.451 162.006 106.445 162.267 105.764C163.129 103.521 161.243 102.486 159.491 104.239Z" fill="white"/>
<path fill-rule="evenodd" clip-rule="evenodd" d="M51.0634 8.54662C51.0634 8.6865 50.4909 10.9622 49.7915 13.6038C48.3013 19.2324 46.7389 25.2633 43.4765 37.9902C39.5136 53.4459 37.8308 59.9643 36.6977 64.2446C36.1027 66.4934 34.6221 72.207 33.4084 76.9414C24.9704 109.859 22.1384 120.854 19.8874 129.433C18.7275 133.852 18.5672 133.729 23.6254 132.276C28.575 130.854 38.2687 128.289 40.014 127.939C41.1567 127.71 42.2219 127.445 42.3812 127.35C42.6738 127.175 54.0073 124.845 58.3802 124.06C70.5153 121.883 89.385 120.787 95.8539 121.885C102.31 122.98 104.033 122.659 99.8061 121.149C85.3221 115.969 66.5782 115.7 35.7842 120.23C27.0051 121.522 27.0998 121.549 28.0252 118C28.8946 114.662 30.8131 106.969 31.3425 104.702C31.591 103.637 32.0623 101.797 32.3894 100.613C32.7165 99.4297 36.8624 82.7732 41.6011 63.599C46.3397 44.4247 50.7008 26.8967 51.2926 24.6479C51.8844 22.399 52.7193 19.1065 53.1497 17.3311L53.9298 14.1031L55.8322 14.1095C56.8791 14.1138 58.5093 14.2731 59.4562 14.4646C61.7566 14.9284 61.1573 14.3635 55.7052 10.9278C51.5519 8.3099 51.0634 8.05919 51.0634 8.54662ZM213.662 12.9496C209.162 15.7547 208.029 16.7984 209.988 16.3336C210.521 16.2066 212.049 15.9732 213.384 15.8128L215.81 15.5223L216.236 16.9642C216.469 17.7582 216.877 19.1818 217.14 20.1287C217.405 21.0755 221.986 39.4751 227.32 61.0166C232.655 82.5581 237.492 102.023 238.069 104.272C242.624 122.046 242.878 123.579 241.161 122.982C240.882 122.885 238.33 122.495 235.489 122.115C232.649 121.734 228.969 121.24 227.312 121.017C200.866 117.448 175.547 118.685 167.929 123.917C166.909 124.618 167.159 124.63 170.499 124.039C174.433 123.343 194.825 123.505 201.013 124.281C214.568 125.981 228.779 129.022 246.023 133.912C251.322 135.415 251.231 135.437 250.542 132.797C250.246 131.667 249.288 128.03 248.413 124.716C247.538 121.402 245.857 114.913 244.674 110.297C243.493 105.681 241.98 99.774 241.312 97.1701C240.645 94.5662 239.086 88.5621 237.85 83.8277C236.613 79.0933 235.458 74.5419 235.283 73.7134C235.109 72.8848 234.343 69.8828 233.583 67.0422C232.822 64.2015 231.259 58.1975 230.108 53.6998C228.958 49.2021 227.312 42.8107 226.45 39.4966C225.589 36.1826 224.042 30.1785 223.012 26.1542C221.982 22.13 220.64 16.9685 220.029 14.6841C219.418 12.3998 218.919 10.4145 218.919 10.2725C218.919 9.75496 218.188 10.1273 213.662 12.9496Z" fill="#FFD050"/>
<path fill-rule="evenodd" clip-rule="evenodd" d="M92.5646 139.144C82.1802 139.761 71.5181 141.694 58.8106 145.262C56.325 145.959 53.7103 146.688 53.0002 146.879C51.0559 147.405 46.4829 148.945 43.1128 150.208L40.1129 151.334L44.1888 152.315C48.7145 153.404 48.4164 153.437 56.2282 150.969C58.2403 150.334 60.4676 149.651 61.1778 149.453C61.8879 149.254 65.3742 148.222 68.925 147.16C79.771 143.916 98.6085 139.558 101.769 139.562C102.609 139.563 103.084 139.388 102.926 139.134C102.637 138.666 100.549 138.668 92.5646 139.144ZM165.119 140.679C169.983 141.285 180.696 143.491 188.361 145.464C197.744 147.881 207.028 150.541 213.969 152.801C221.35 155.205 221.173 155.178 224.371 154.421C225.988 154.038 227.748 153.633 228.28 153.522C229.64 153.239 229.485 152.767 227.85 152.212C204.552 144.293 188.764 141.091 170.93 140.666C166.905 140.57 164.291 140.576 165.119 140.679Z" fill="#FFD050"/>
<path fill-rule="evenodd" clip-rule="evenodd" d="M35.3506 32.2874C35.1795 32.7017 34.8879 33.6217 34.7018 34.3318C34.5167 35.042 33.0652 40.0776 31.4781 45.5222C29.8899 50.9667 28.4395 56.0024 28.2533 56.7126C27.9111 58.0188 24.3421 70.5058 23.5168 73.2829C22.8808 75.422 17.8861 93.0372 17.4761 94.5877C17.2878 95.2979 16.3312 98.6872 15.3499 102.12C14.3697 105.552 13.086 110.104 12.4996 112.234C11.9121 114.365 11.1514 117.076 10.8103 118.26C9.7343 121.98 7.43059 130.217 5.24309 138.162C4.67173 140.236 3.34395 145.03 2.29162 148.818C-0.141208 157.578 -0.252033 158.072 0.223558 158.072C0.44091 158.072 3.10724 157.181 6.15016 156.092C9.192 155.003 12.2629 153.958 12.9731 153.769C13.6832 153.579 16.0074 152.844 18.1378 152.134C23.0444 150.5 32.0505 147.711 37.0754 146.27C39.2059 145.659 41.53 144.972 42.2402 144.744C43.6637 144.287 48.0377 143.189 56.2282 141.234C62.8875 139.645 72.89 137.675 77.7481 136.995C79.7602 136.714 82.5686 136.305 83.9889 136.087C89.9801 135.167 102.444 134.69 108.522 135.15C115.568 135.681 115.387 135.731 112.822 133.967C102.446 126.828 82.4007 126.206 53.4306 132.126C43.6142 134.132 43.9338 134.059 37.0754 135.869C31.8095 137.261 28.9484 138.066 18.5682 141.075C15.1466 142.068 11.3343 143.008 10.7307 143.008C9.69449 143.008 9.9409 141.801 14.1136 126.437C14.8216 123.833 16.0547 119.185 16.8542 116.108C17.6536 113.03 18.5951 109.447 18.9448 108.145C19.2945 106.843 20.1919 103.454 20.9387 100.613C21.6854 97.7727 22.6796 93.9959 23.1477 92.2205C23.6158 90.4451 24.4572 87.2494 25.0178 85.1189C26.7652 78.4671 28.1672 73.1678 28.8892 70.4853C29.2712 69.065 30.1707 65.6756 30.8873 62.9534C31.605 60.2311 32.5498 56.648 32.9866 54.991C35.7971 44.345 36.4685 41.782 37.1034 39.2814C37.9222 36.0545 38.3354 35.4121 39.6029 35.396C40.369 35.3852 40.1807 35.07 38.4473 33.4592C36.149 31.3233 35.8025 31.1921 35.3506 32.2874ZM231.425 35.311L229.083 37.3446L230.565 37.5598C231.906 37.7546 232.092 37.9579 232.533 39.7118C232.964 41.4269 234.553 47.4848 236.994 56.7126C237.433 58.3696 238.377 61.9527 239.095 64.6749C239.812 67.3972 240.709 70.7866 241.088 72.2069C241.926 75.3435 244.013 83.294 245.382 88.5621C246.677 93.5494 249.28 103.407 250.611 108.36C251.183 110.491 252.342 114.849 253.184 118.044C254.945 124.712 255.944 128.492 257.2 133.216C260.644 146.183 260.724 145.6 255.718 144.057C254.535 143.691 252.598 143.128 251.414 142.806C250.231 142.484 244.711 140.934 239.148 139.363C233.585 137.793 228.162 136.325 227.097 136.1C226.031 135.876 223.901 135.404 222.362 135.052C217.559 133.953 213.689 133.179 209.45 132.471C207.201 132.095 204.296 131.605 202.994 131.381C183.45 128.032 163.752 130.154 156.356 136.406L155.005 137.548L156.942 137.257C166.565 135.815 188.267 137.331 201.918 140.398C202.865 140.611 204.802 141.02 206.222 141.306C209.653 141.998 225.839 145.935 228.345 146.689C229.434 147.016 232.068 147.786 234.198 148.402C241.115 150.4 249.058 152.913 259.427 156.388C265.019 158.261 269.719 159.793 269.873 159.793C270.18 159.793 269.946 158.578 269.009 155.274C268.373 153.038 262.581 132.227 261.911 129.773C261.105 126.821 260.641 125.173 256.797 111.588C254.621 103.895 252.681 97.0195 252.486 96.3093C252.291 95.5991 251.329 92.2097 250.348 88.7773C247.693 79.4947 247.413 78.5037 246.507 75.2197C245.744 72.4533 242.694 61.7407 241.054 56.067C240.678 54.765 240.211 53.2156 240.016 52.6238C239.821 52.032 238.656 47.9647 237.426 43.5854C234.066 31.6203 234.688 32.4779 231.425 35.311Z" fill="white"/>
<path d="M84.3609 185.452C84.3609 190.884 79.5729 195 73.0769 195H60.5329V183.324H66.3569V190.184H73.0769C76.2969 190.184 78.6209 188.392 78.6209 185.704C78.6209 183.072 76.2129 181.14 73.0769 181.14H60.5329L64.2289 176.268H73.0769C79.6289 176.268 84.3609 180.048 84.3609 185.452ZM94.3024 176.268V195H88.5064V176.268H94.3024ZM107.123 187.468L110.595 183.296H122.579V195H109.727C103.231 195 98.4427 190.884 98.4427 185.452C98.4427 179.964 103.231 176.268 109.727 176.268H123.139L119.387 181.14H109.727C106.591 181.14 104.211 183.044 104.211 185.704C104.211 188.42 106.507 190.184 109.727 190.184H116.811V187.468H107.123ZM132.91 176.268V195H127.114V176.268H132.91ZM139.626 176.268H160.906L157.154 181.14H150.462V195H144.666V181.14H135.874L139.626 176.268ZM187.579 195H165.795L169.295 190.184H173.999C175.119 190.184 176.435 190.184 177.331 190.24C176.827 189.568 176.043 188.42 175.427 187.524L172.067 182.568L163.275 195H156.415L168.427 178.06C169.211 176.968 170.359 175.96 172.179 175.96C173.915 175.96 175.063 176.884 175.875 178.06L187.579 195ZM196.561 190.184H211.065L207.313 195H190.765V176.268H196.561V190.184Z" fill="#FFD050"/>
<path d="M63.0819 217.109C62.6522 217.109 62.3788 216.828 62.3788 216.383V206.344C62.3788 205.898 62.6522 205.617 63.0819 205.617C63.5116 205.617 63.785 205.898 63.785 206.344V216.383C63.785 216.828 63.5116 217.109 63.0819 217.109ZM75.6278 217.109C75.1981 217.109 74.9325 216.828 74.9325 216.383V206.438C74.9325 205.945 75.2528 205.617 75.7372 205.617C76.1122 205.617 76.2997 205.727 76.5497 206.086L82.4716 214.578H82.5419V206.344C82.5419 205.898 82.8075 205.617 83.2372 205.617C83.6669 205.617 83.9325 205.898 83.9325 206.344V216.344C83.9325 216.82 83.6356 217.109 83.1356 217.109C82.7528 217.109 82.5731 217.008 82.3231 216.648L76.3934 208.18H76.3231V216.383C76.3231 216.828 76.0575 217.109 75.6278 217.109ZM98.7753 217.188C96.6581 217.188 95.1503 216.234 94.7284 214.875C94.6816 214.719 94.6503 214.547 94.6503 214.383C94.6503 213.938 94.9003 213.656 95.2988 213.656C95.6503 213.656 95.8691 213.836 95.9784 214.211C96.3222 215.375 97.4316 215.922 98.8534 215.922C100.385 215.922 101.494 215.117 101.494 214.008C101.494 213.062 100.869 212.438 99.3066 212.094L98.0566 211.82C95.7988 211.328 94.8222 210.305 94.8222 208.703C94.8222 206.844 96.4628 205.539 98.7988 205.539C100.682 205.539 102.197 206.484 102.603 208.008C102.627 208.094 102.643 208.211 102.643 208.359C102.643 208.742 102.377 208.992 102.002 208.992C101.643 208.992 101.424 208.805 101.299 208.445C100.908 207.305 99.9784 206.805 98.7597 206.805C97.3534 206.805 96.2675 207.492 96.2675 208.641C96.2675 209.531 96.8691 210.141 98.4081 210.477L99.6581 210.75C102.01 211.266 102.939 212.203 102.939 213.797C102.939 215.883 101.299 217.188 98.7753 217.188ZM117.095 217.109C116.665 217.109 116.392 216.828 116.392 216.383V206.992H113.392C112.993 206.992 112.72 206.734 112.72 206.359C112.72 205.984 112.993 205.727 113.392 205.727H120.798C121.196 205.727 121.47 205.984 121.47 206.359C121.47 206.734 121.196 206.992 120.798 206.992H117.798V216.383C117.798 216.828 117.524 217.109 117.095 217.109ZM132.5 217.109C132.07 217.109 131.797 216.828 131.797 216.383V206.344C131.797 205.898 132.07 205.617 132.5 205.617C132.93 205.617 133.203 205.898 133.203 206.344V216.383C133.203 216.828 132.93 217.109 132.5 217.109ZM147.905 217.109C147.476 217.109 147.202 216.828 147.202 216.383V206.992H144.202C143.804 206.992 143.53 206.734 143.53 206.359C143.53 205.984 143.804 205.727 144.202 205.727H151.608C152.007 205.727 152.28 205.984 152.28 206.359C152.28 206.734 152.007 206.992 151.608 206.992H148.608V216.383C148.608 216.828 148.335 217.109 147.905 217.109ZM167.084 217.188C164.287 217.188 162.608 215.453 162.608 213.047V206.344C162.608 205.898 162.881 205.617 163.311 205.617C163.74 205.617 164.014 205.898 164.014 206.344V212.953C164.014 214.656 165.131 215.891 167.084 215.891C169.037 215.891 170.154 214.656 170.154 212.953V206.344C170.154 205.898 170.428 205.617 170.858 205.617C171.287 205.617 171.561 205.898 171.561 206.344V213.047C171.561 215.453 169.881 217.188 167.084 217.188ZM186.263 217.109C185.833 217.109 185.56 216.828 185.56 216.383V206.992H182.56C182.161 206.992 181.888 206.734 181.888 206.359C181.888 205.984 182.161 205.727 182.56 205.727H189.966C190.364 205.727 190.638 205.984 190.638 206.359C190.638 206.734 190.364 206.992 189.966 206.992H186.966V216.383C186.966 216.828 186.693 217.109 186.263 217.109ZM201.668 217C201.238 217 200.965 216.719 200.965 216.273V206.453C200.965 206.008 201.238 205.727 201.668 205.727H207.395C207.793 205.727 208.067 205.984 208.067 206.359C208.067 206.734 207.793 206.992 207.395 206.992H202.371V210.609H207.113C207.504 210.609 207.777 210.859 207.777 211.234C207.777 211.602 207.504 211.859 207.113 211.859H202.371V215.734H207.395C207.793 215.734 208.067 215.992 208.067 216.367C208.067 216.742 207.793 217 207.395 217H201.668Z" fill="white"/>
</svg>
