<svg width="100" height="100" viewBox="0 0 100 100" fill="none" xmlns="http://www.w3.org/2000/svg">
<rect x="1" y="1" width="98" height="98" rx="49" fill="#FFD050"/>
<rect x="1" y="1" width="98" height="98" rx="49" stroke="#1C8E5A" stroke-width="2"/>
<path d="M73.4814 28.306V27.6101C73.4814 26.0631 72.2228 24.8046 70.6761 24.8046H55.362C52.9969 24.8046 50.9561 26.1967 50.0003 28.2015C49.0445 26.1967 47.004 24.8046 44.6393 24.8046H29.3247C27.7781 24.8046 26.5195 26.0631 26.5195 27.6101V28.305C23.9798 28.8886 22.1221 31.1812 22.1221 33.835V63.4141V63.4158C22.1221 66.5441 24.6642 69.0891 27.7888 69.0891H45.0893C44.8518 70.5244 43.9692 72.9456 42.0921 74.0338H38.7395C38.4185 74.0338 38.1587 74.2939 38.1587 74.6146C38.1587 74.9354 38.4185 75.1954 38.7395 75.1954H61.2614C61.5824 75.1954 61.8421 74.9353 61.8421 74.6146C61.8421 74.2939 61.5824 74.0338 61.2614 74.0338H57.9088C56.0331 72.9461 55.1494 70.5248 54.9116 69.0891H72.2058C75.3338 69.0891 77.8787 66.5441 77.8787 63.4158V63.4141C77.8787 54.7528 77.8787 42.4653 77.8787 33.835C77.8788 31.1876 76.021 28.8951 73.4814 28.306ZM72.2058 67.9261C63.5541 67.9261 36.0954 67.9261 27.7888 67.9261C25.3046 67.9261 23.2836 65.9021 23.2836 63.4142V61.796H76.7171V63.4142C76.7171 65.902 74.6935 67.9261 72.2058 67.9261ZM50.5812 30.7467C50.5812 28.1106 52.7257 25.9661 55.362 25.9661H70.676C71.5824 25.9661 72.3197 26.7038 72.3197 27.6101V28.7882V53.7246C72.3197 54.5759 71.6173 55.3706 70.676 55.3706H55.362C53.4384 55.3706 51.6584 56.2736 50.5812 57.7029V30.747V30.7467ZM27.6811 27.6101C27.6811 26.7038 28.4184 25.9661 29.3247 25.9661H44.6393C47.275 25.9661 49.4196 28.1106 49.4196 30.7469V57.7027C48.3528 56.287 46.5742 55.3704 44.6393 55.3704H29.3247C28.4134 55.3704 27.6811 54.6261 27.6811 53.7244C27.6811 45.5965 27.6811 35.0414 27.6811 27.6101ZM26.5195 29.5045V53.7245V53.7265C26.5195 55.2755 27.7809 56.5332 29.3282 56.5332H44.6383C47.0787 56.5332 49.0922 58.2577 49.3809 60.6342H23.2837V33.835C23.2837 31.8158 24.6347 30.0593 26.5195 29.5045ZM56.0478 74.0338H43.9536C45.3927 72.5415 46.0762 70.4218 46.2641 69.0891H53.7367C53.9253 70.4218 54.6087 72.5417 56.0478 74.0338ZM76.7171 60.6343H50.6233C50.9072 58.2934 52.8847 56.5333 55.3627 56.5333H70.6789C72.2785 56.5333 73.4814 55.1766 73.4814 53.7266V53.7246V29.5063C75.3661 30.0655 76.7171 31.8212 76.7171 33.835V60.6343Z" fill="#252525"/>
<path d="M46.2438 64.2804H44.3279C44.0068 64.2804 43.7471 64.5405 43.7471 64.8612C43.7471 65.1819 44.0068 65.442 44.3279 65.442H46.2438C46.5648 65.442 46.8246 65.1819 46.8246 64.8612C46.8246 64.5405 46.5648 64.2804 46.2438 64.2804Z" fill="#252525"/>
<path d="M50.9581 64.2804H49.0427C48.7217 64.2804 48.4619 64.5405 48.4619 64.8612C48.4619 65.1819 48.7217 65.442 49.0427 65.442H50.9581C51.2791 65.442 51.5389 65.1819 51.5389 64.8612C51.5389 64.5405 51.2791 64.2804 50.9581 64.2804Z" fill="#252525"/>
<path d="M55.6729 64.2804H53.7575C53.4365 64.2804 53.1768 64.5405 53.1768 64.8612C53.1768 65.1819 53.4365 65.442 53.7575 65.442H55.6729C55.9939 65.442 56.2537 65.1819 56.2537 64.8612C56.2537 64.5405 55.9939 64.2804 55.6729 64.2804Z" fill="#252525"/>
<path d="M31.8161 31.1457H44.639C44.9601 31.1457 45.2198 30.8856 45.2198 30.5649C45.2198 30.2442 44.9601 29.9841 44.639 29.9841H31.8161C31.4951 29.9841 31.2354 30.2442 31.2354 30.5649C31.2354 30.8856 31.4951 31.1457 31.8161 31.1457Z" fill="#252525"/>
<path d="M31.8161 35.7734H44.639C44.9601 35.7734 45.2198 35.5133 45.2198 35.1926C45.2198 34.8719 44.9601 34.6118 44.639 34.6118H31.8161C31.4951 34.6118 31.2354 34.8719 31.2354 35.1926C31.2354 35.5133 31.4951 35.7734 31.8161 35.7734Z" fill="#252525"/>
<path d="M31.8161 40.4008H44.639C44.9601 40.4008 45.2198 40.1407 45.2198 39.82C45.2198 39.4992 44.9601 39.2393 44.639 39.2393H31.8161C31.4951 39.2393 31.2354 39.4994 31.2354 39.82C31.2354 40.1407 31.4951 40.4008 31.8161 40.4008Z" fill="#252525"/>
<path d="M31.8161 45.0281H44.639C44.9601 45.0281 45.2198 44.768 45.2198 44.4474C45.2198 44.1267 44.9601 43.8666 44.639 43.8666H31.8161C31.4951 43.8666 31.2354 44.1267 31.2354 44.4474C31.2354 44.768 31.4951 45.0281 31.8161 45.0281Z" fill="#252525"/>
<path d="M31.8161 49.6558H44.639C44.9601 49.6558 45.2198 49.3957 45.2198 49.075C45.2198 48.7544 44.9601 48.4943 44.639 48.4943H31.8161C31.4951 48.4943 31.2354 48.7544 31.2354 49.075C31.2354 49.3957 31.4951 49.6558 31.8161 49.6558Z" fill="#252525"/>
<path d="M55.362 31.1457H68.1844C68.5054 31.1457 68.7652 30.8856 68.7652 30.5649C68.7652 30.2442 68.5054 29.9841 68.1844 29.9841H55.362C55.041 29.9841 54.7812 30.2442 54.7812 30.5649C54.7812 30.8856 55.041 31.1457 55.362 31.1457Z" fill="#252525"/>
<path d="M55.362 35.7733H68.1844C68.5054 35.7733 68.7652 35.5133 68.7652 35.1926C68.7652 34.8719 68.5054 34.6118 68.1844 34.6118H55.362C55.041 34.6118 54.7812 34.8719 54.7812 35.1926C54.7812 35.5133 55.041 35.7733 55.362 35.7733Z" fill="#252525"/>
<path d="M55.362 40.4008H68.1844C68.5054 40.4008 68.7652 40.1407 68.7652 39.82C68.7652 39.4992 68.5054 39.2392 68.1844 39.2392H55.362C55.041 39.2392 54.7812 39.4993 54.7812 39.82C54.7812 40.1407 55.041 40.4008 55.362 40.4008Z" fill="#252525"/>
<path d="M55.362 45.0281H68.1844C68.5054 45.0281 68.7652 44.768 68.7652 44.4473C68.7652 44.1266 68.5054 43.8665 68.1844 43.8665H55.362C55.041 43.8665 54.7812 44.1266 54.7812 44.4473C54.7812 44.768 55.041 45.0281 55.362 45.0281Z" fill="#252525"/>
<path d="M55.362 49.6559H68.1844C68.5054 49.6559 68.7652 49.3958 68.7652 49.0751C68.7652 48.7544 68.5054 48.4943 68.1844 48.4943H55.362C55.041 48.4943 54.7812 48.7544 54.7812 49.0751C54.7812 49.3958 55.041 49.6559 55.362 49.6559Z" fill="#252525"/>
</svg>
