<svg width="90" height="32" viewBox="0 0 90 32" fill="none" xmlns="http://www.w3.org/2000/svg">
<g clip-path="url(#clip0_61_1998)">
<path d="M8.31808 31.841V29.7231C8.31808 28.911 7.82377 28.3816 6.97649 28.3816C6.55293 28.3816 6.094 28.5228 5.77625 28.9818C5.52925 28.5934 5.17629 28.3816 4.64676 28.3816C4.29364 28.3816 3.94083 28.4874 3.6583 28.8758V28.4522H2.91699V31.841H3.6583V29.9701C3.6583 29.3701 3.97605 29.0876 4.47036 29.0876C4.96435 29.0876 5.21167 29.4053 5.21167 29.9701V31.841H5.95297V29.9701C5.95297 29.3701 6.30578 29.0876 6.76471 29.0876C7.25902 29.0876 7.50602 29.4053 7.50602 29.9701V31.841H8.31808ZM19.2963 28.4522H18.0962V27.4286H17.3549V28.4522H16.6842V29.1228H17.3548V30.6761C17.3548 31.4528 17.6725 31.9116 18.5198 31.9116C18.8376 31.9116 19.1904 31.8058 19.4377 31.6646L19.2257 31.0291C19.014 31.1703 18.767 31.2057 18.5904 31.2057C18.2374 31.2057 18.0962 30.9939 18.0962 30.6408V29.1228H19.2963V28.4522ZM25.5799 28.3815C25.1563 28.3815 24.874 28.5934 24.6974 28.8758V28.4522H23.9561V31.841H24.6974V29.9348C24.6974 29.3701 24.9444 29.0524 25.4033 29.0524C25.5445 29.0524 25.7211 29.0877 25.8623 29.1229L26.0741 28.417C25.9329 28.3816 25.7211 28.3816 25.5799 28.3816M16.0841 28.7348C15.731 28.4876 15.2368 28.3818 14.7073 28.3818C13.8602 28.3818 13.2954 28.8054 13.2954 29.4761C13.2954 30.041 13.719 30.3586 14.4603 30.4645L14.8133 30.4999C15.2016 30.5703 15.4134 30.6763 15.4134 30.8529C15.4134 31.0999 15.131 31.2764 14.6367 31.2764C14.1424 31.2764 13.7542 31.0999 13.5071 30.9235L13.1541 31.4882C13.5424 31.7706 14.072 31.9118 14.6013 31.9118C15.5898 31.9118 16.1547 31.453 16.1547 30.8175C16.1547 30.2174 15.6958 29.8996 14.9897 29.7938L14.6367 29.7584C14.319 29.7231 14.072 29.6526 14.072 29.4409C14.072 29.1937 14.319 29.0525 14.7073 29.0525C15.131 29.0525 15.5546 29.2289 15.7664 29.3349L16.0841 28.7348ZM35.7818 28.3818C35.3581 28.3818 35.0757 28.5936 34.8991 28.8759V28.4524H34.1578V31.8412H34.8991V29.935C34.8991 29.3703 35.1463 29.0525 35.6051 29.0525C35.7464 29.0525 35.923 29.0879 36.0642 29.1231L36.2759 28.4172C36.1348 28.3818 35.923 28.3818 35.7818 28.3818ZM26.3212 30.1468C26.3212 31.1705 27.0271 31.9118 28.1216 31.9118C28.6157 31.9118 28.9687 31.806 29.3217 31.5236L28.9687 30.9235C28.6863 31.1352 28.4039 31.2411 28.0862 31.2411C27.4861 31.2411 27.0625 30.8175 27.0625 30.1468C27.0625 29.5114 27.4861 29.0877 28.0862 29.0525C28.4039 29.0525 28.6863 29.1583 28.9687 29.3703L29.3217 28.7701C28.9687 28.4876 28.6157 28.3818 28.1216 28.3818C27.0271 28.3818 26.3212 29.1231 26.3212 30.1468ZM33.1695 30.1468V28.4524H32.4282V28.8759C32.1811 28.5584 31.8281 28.3818 31.3692 28.3818C30.4161 28.3818 29.6748 29.1231 29.6748 30.1468C29.6748 31.1705 30.4161 31.9118 31.3692 31.9118C31.8633 31.9118 32.2165 31.7354 32.4282 31.4176V31.8412H33.1695V30.1468ZM30.4513 30.1468C30.4513 29.5467 30.8396 29.0525 31.475 29.0525C32.0751 29.0525 32.4988 29.5114 32.4988 30.1468C32.4988 30.7469 32.0751 31.2411 31.475 31.2411C30.8396 31.2057 30.4513 30.7469 30.4513 30.1468ZM21.591 28.3818C20.6025 28.3818 19.8965 29.0877 19.8965 30.1468C19.8965 31.2058 20.6024 31.9118 21.6262 31.9118C22.1204 31.9118 22.6147 31.7706 23.003 31.453L22.6499 30.9235C22.3675 31.1352 22.0146 31.2764 21.6616 31.2764C21.2027 31.2764 20.7437 31.0647 20.6378 30.4644H23.1442V30.1822C23.1796 29.0877 22.5442 28.3818 21.591 28.3818ZM21.5908 29.0171C22.0496 29.0171 22.3675 29.2997 22.438 29.8292H20.673C20.7436 29.3703 21.0613 29.0171 21.5908 29.0171ZM39.9823 30.1468V27.111H39.241V28.8759C38.9939 28.5584 38.6409 28.3818 38.182 28.3818C37.2289 28.3818 36.4876 29.1231 36.4876 30.1468C36.4876 31.1705 37.2289 31.9118 38.182 31.9118C38.6763 31.9118 39.0292 31.7354 39.241 31.4176V31.8412H39.9823V30.1468ZM37.2642 30.1468C37.2642 29.5467 37.6524 29.0525 38.2879 29.0525C38.888 29.0525 39.3116 29.5114 39.3116 30.1468C39.3116 30.7469 38.888 31.2411 38.2879 31.2411C37.6524 31.2057 37.2642 30.7469 37.2642 30.1468ZM12.4832 30.1468V28.4524H11.7419V28.8759C11.4948 28.5584 11.1418 28.3818 10.6829 28.3818C9.72978 28.3818 8.98847 29.1231 8.98847 30.1468C8.98847 31.1705 9.72978 31.9118 10.6829 31.9118C11.1772 31.9118 11.5301 31.7354 11.7419 31.4176V31.8412H12.4832V30.1468ZM9.72978 30.1468C9.72978 29.5467 10.1181 29.0525 10.7535 29.0525C11.3536 29.0525 11.7773 29.5114 11.7773 30.1468C11.7773 30.7469 11.3536 31.2411 10.7535 31.2411C10.1181 31.2057 9.72978 30.7469 9.72978 30.1468Z" fill="white"/>
<path d="M15.8369 2.71808H26.9565V22.6981H15.8369V2.71808Z" fill="#FF5F00"/>
<path d="M16.5428 12.7082C16.5428 8.64868 18.4489 5.04796 21.3788 2.71807C19.2256 1.02368 16.5076 0 13.5423 0C6.51728 0 0.833984 5.6833 0.833984 12.7082C0.833984 19.7331 6.51728 25.4164 13.5422 25.4164C16.5074 25.4164 19.2255 24.3927 21.3788 22.6981C18.4489 20.4036 16.5428 16.7677 16.5428 12.7082Z" fill="#EB001B"/>
<path d="M41.9589 12.7082C41.9589 19.7329 36.2756 25.4164 29.2507 25.4164C26.2855 25.4164 23.5674 24.3927 21.4141 22.6981C24.3793 20.3684 26.2502 16.7677 26.2502 12.7082C26.2502 8.64868 24.3439 5.04796 21.4141 2.71807C23.5672 1.02368 26.2855 0 29.2507 0C36.2756 0 41.9589 5.71867 41.9589 12.7082Z" fill="#F79E1B"/>
</g>
<g clip-path="url(#clip1_61_1998)">
<path d="M58.4941 16C58.4941 7.43753 65.4379 0.493774 74.0004 0.493774C82.5629 0.493774 89.5066 7.43753 89.5066 16C89.5066 24.5625 82.5629 31.5063 74.0004 31.5063C65.4379 31.5063 58.4941 24.5625 58.4941 16Z" fill="#F3F2F2"/>
<path d="M69.9756 18.975L71.1631 11.9688H73.0881L71.9006 18.975H69.9756Z" fill="#293688"/>
<path d="M78.7375 12.15C78.3562 12.0063 77.7625 11.8563 77.0187 11.8563C75.1187 11.8563 73.7813 12.8063 73.7688 14.1688C73.7563 15.175 74.725 15.7375 75.45 16.075C76.2 16.4188 76.45 16.6375 76.4438 16.9438C76.4375 17.4125 75.8438 17.625 75.2938 17.625C74.525 17.625 74.1188 17.5188 73.4875 17.2563L73.2375 17.1438L72.9688 18.7125C73.4187 18.9063 74.25 19.075 75.1063 19.0875C77.125 19.0875 78.4375 18.15 78.45 16.6938C78.4563 15.9 77.9437 15.2875 76.8375 14.7875C76.1687 14.4625 75.7563 14.25 75.7563 13.9188C75.7563 13.625 76.1063 13.3188 76.8563 13.3188C77.4875 13.3063 77.9375 13.4438 78.2938 13.5875L78.4688 13.6688L78.7375 12.15Z" fill="#293688"/>
<path d="M82.0133 11.9687C81.5508 11.9687 81.2195 12.1062 81.0195 12.5625L78.1758 18.9687H80.207L80.6008 17.8937H83.032L83.257 18.9687H85.0633L83.482 11.9625H82.0133V11.9687ZM81.1383 16.5C81.2945 16.0937 81.9008 14.5437 81.9008 14.5437C81.8883 14.5625 82.057 14.1375 82.157 13.875L82.2883 14.4812C82.2883 14.4812 82.657 16.1562 82.732 16.5062H81.1383V16.5Z" fill="#293688"/>
<path d="M66.4754 16.7688L66.3066 15.8063C65.9566 14.6875 64.8691 13.475 63.6504 12.8688L65.3504 18.9688H67.3816L70.4316 11.9625H68.4004L66.4754 16.7688Z" fill="#293688"/>
<path d="M61.5566 11.9688V12.0813C63.9691 12.6625 65.6379 14.125 66.3004 15.8125L65.6066 12.5688C65.4879 12.125 65.1379 11.9875 64.7191 11.9688H61.5566Z" fill="#F7981D"/>
<path d="M74.0004 31.5063C79.9879 31.5063 85.1754 28.1125 87.7566 23.15H60.2441C62.8254 28.1125 68.0191 31.5063 74.0004 31.5063Z" fill="#F7981D"/>
<path d="M74.0008 0.493774C68.1133 0.493774 62.9883 3.77502 60.3633 8.61252H87.6383C85.0133 3.78127 79.8883 0.493774 74.0008 0.493774Z" fill="#293688"/>
</g>
<defs>
<clipPath id="clip0_61_1998">
<rect width="41.1658" height="32" fill="white" transform="translate(0.833984)"/>
</clipPath>
<clipPath id="clip1_61_1998">
<rect width="32" height="32" fill="white" transform="translate(58)"/>
</clipPath>
</defs>
</svg>
