<svg width="100" height="100" viewBox="0 0 100 100" fill="none" xmlns="http://www.w3.org/2000/svg">
<rect x="1" y="1" width="98" height="98" rx="49" fill="#FFD050"/>
<rect x="1" y="1" width="98" height="98" rx="49" stroke="#1C8E5A" stroke-width="2"/>
<path d="M74.5653 25.0844H25.4349C23.7782 25.0844 22.4297 26.4328 22.4297 28.0895V57.4195V61.4007C22.4297 63.0579 23.7782 64.4064 25.4349 64.4064H42.9096V70.2446H41.3571C39.6642 70.2446 38.2876 71.6219 38.2876 73.3147V74.3024C38.2876 74.6412 38.562 74.915 38.9002 74.915H61.0999C61.4387 74.915 61.7126 74.6412 61.7126 74.3024V73.3147C61.7126 71.6219 60.3353 70.2446 58.6425 70.2446H57.0899V64.4064H74.5647C76.2219 64.4064 77.5698 63.0579 77.5698 61.4007V57.4195V28.0895C77.5704 26.4328 76.2226 25.0844 74.5653 25.0844ZM23.655 28.0895C23.655 27.108 24.4534 26.3097 25.4349 26.3097H74.5647C75.5462 26.3097 76.3451 27.108 76.3451 28.0895V56.8068H41.4637H27.5241H23.655V28.0895ZM60.4872 73.3154V73.6903H39.5129V73.3154C39.5129 72.2983 40.3406 71.4706 41.3571 71.4706H43.5222H56.4773H58.6425C59.6601 71.4706 60.4872 72.2983 60.4872 73.3154ZM55.8646 70.2452H44.1349V64.4071H55.8646V70.2452ZM76.3451 61.4007C76.3451 62.3828 75.5462 63.1811 74.5653 63.1811H56.4773H43.5222H25.4349C24.4534 63.1817 23.655 62.3828 23.655 61.4007V58.0322H27.5241H41.4637H76.3451V61.4007Z" fill="#252525"/>
<path d="M47.9662 61.2199H52.0337C52.3725 61.2199 52.6464 60.9461 52.6464 60.6072C52.6464 60.2684 52.3725 59.9946 52.0337 59.9946H47.9662C47.628 59.9946 47.3535 60.2684 47.3535 60.6072C47.3535 60.9461 47.628 61.2199 47.9662 61.2199Z" fill="#252525"/>
<path d="M28.1366 54.3371V51.0568C28.1366 50.329 28.7186 49.7022 29.52 49.5674L31.2876 49.2697L34.8025 52.8655C34.9177 52.9831 35.0758 53.0499 35.2406 53.0499C35.4054 53.0499 35.5634 52.9837 35.6786 52.8655L39.2193 49.2433L40.1205 49.307C40.5555 49.3377 40.9354 49.6213 41.0892 50.0294L41.4341 50.9478C41.5009 51.1255 41.6455 51.2621 41.8268 51.3178C42.0076 51.3754 42.2055 51.3442 42.3598 51.2339L46.7184 48.1754L48.0044 49.6648L43.3585 53.5069C43.0975 53.7226 43.0614 54.1086 43.277 54.3696C43.3983 54.5154 43.5729 54.5914 43.7494 54.5914C43.8872 54.5914 44.0251 54.5454 44.1397 54.4511L49.2684 50.2107C49.2727 50.2071 49.2745 50.2022 49.2782 50.1985C49.2825 50.1948 49.2886 50.193 49.2929 50.1893L49.9999 49.5374C50.6824 48.9082 50.8043 47.8991 50.3363 47.1278L54.3376 43.7035C54.5944 43.4836 54.625 43.097 54.4044 42.8396C54.1839 42.5823 53.7973 42.5535 53.5406 42.7729L49.4908 46.2382C48.8904 45.8748 48.1147 45.8516 47.4904 46.2314L46.5021 46.8324C46.4966 46.8361 46.4936 46.8423 46.4881 46.8459C46.4819 46.8502 46.4746 46.8502 46.4691 46.8545L42.3041 49.777L42.2373 49.5987C41.9163 48.744 41.1198 48.1497 40.2081 48.0854L39.0826 48.0088C38.5723 47.923 38.2016 47.5297 38.201 47.0604L38.1949 46.7877C39.1194 45.8675 39.7174 44.6348 39.8301 43.29C39.8301 43.2881 39.8295 43.2863 39.8295 43.2838C39.8295 43.2814 39.8307 43.2802 39.8313 43.2777L39.9857 40.8766C40.8747 39.4975 41.1602 38.2483 40.8239 37.1644C40.5286 36.2142 39.7646 35.414 38.5478 34.7781C38.5986 34.7523 38.6544 34.726 38.715 34.6978C38.9399 34.5949 39.0802 34.3664 39.0716 34.1194C39.0624 33.8725 38.9062 33.655 38.6746 33.568C36.1896 32.6343 33.0264 32.7513 31.4432 35.0623C30.6063 35.403 29.9973 36.0261 29.7155 36.8367C29.316 37.9842 29.6015 39.4105 30.5077 40.8687L30.6541 43.2887C30.7668 44.6342 31.3648 45.8669 32.2893 46.7871L32.2826 47.0738C32.2826 47.5291 31.9119 47.9224 31.4015 48.0082L29.3184 48.3592C27.9246 48.5939 26.9131 49.7286 26.9131 51.0575V54.3377C26.9131 54.6765 27.1876 54.9504 27.5258 54.9504C27.864 54.9504 28.1366 54.6759 28.1366 54.3371ZM48.1257 47.2779C48.4192 47.0983 48.807 47.1633 49.027 47.428L49.0325 47.4347L49.2316 47.6743C49.4699 47.961 49.4418 48.3831 49.1679 48.6355L48.9259 48.8586L47.7557 47.5027L48.1257 47.2779ZM35.2406 51.5611L32.5626 48.8212C32.9792 48.5326 33.2825 48.1203 33.4191 47.6461C33.7064 47.814 34.0054 47.9659 34.3252 48.0817C34.6193 48.1883 34.9281 48.2422 35.2412 48.2422C35.5543 48.2422 35.8624 48.1883 36.1571 48.0817C36.4776 47.9659 36.7772 47.8133 37.0651 47.6449C37.2023 48.1166 37.5038 48.5253 37.9253 48.8145L35.2406 51.5611ZM30.871 37.2392C31.0511 36.7209 31.4555 36.3435 32.0406 36.1462C32.176 36.1002 32.2905 36.0089 32.3659 35.8882C33.0944 34.7119 34.381 34.2426 35.7497 34.2426C36.181 34.2426 36.6209 34.2892 37.0535 34.3749C36.9481 34.5109 36.8789 34.6531 36.8427 34.8038C36.7716 35.1003 36.9297 35.4036 37.2128 35.5163C38.5858 36.0598 39.4061 36.7368 39.6518 37.5278C39.7682 37.9021 39.7615 38.3255 39.6328 38.7942C39.6175 38.7788 39.6016 38.7635 39.585 38.7488C39.37 38.5595 39.0906 38.486 38.8143 38.5374C37.9504 38.6728 36.9983 38.7372 35.8974 38.3169C34.5727 37.7624 32.9044 37.219 31.7404 37.9456C31.3887 38.1649 31.113 38.4731 30.9102 38.875C30.7245 38.263 30.7086 37.7054 30.871 37.2392ZM31.7226 40.6953C31.7796 39.8032 32.0026 39.2261 32.3886 38.9853C32.9106 38.66 33.9031 38.8101 35.4415 39.4546C36.7165 39.9417 37.8242 39.9117 38.7702 39.7824C38.7892 39.9301 38.7978 40.1898 38.7714 40.6444V40.645L38.6078 43.1883C38.4657 44.8829 37.3402 46.3515 35.7405 46.9299C35.58 46.9881 35.4121 47.0175 35.2412 47.0175C35.0702 47.0175 34.9018 46.9881 34.7418 46.9299C33.1415 46.3515 32.0161 44.8823 31.8751 43.2011L31.7226 40.6953Z" fill="#252525"/>
<path d="M54.848 33.9442H72.1322C72.471 33.9442 72.7449 33.6697 72.7449 33.3315C72.7449 32.9934 72.471 32.7189 72.1322 32.7189H54.848C54.5092 32.7189 54.2354 32.9934 54.2354 33.3315C54.2354 33.6697 54.5092 33.9442 54.848 33.9442Z" fill="#252525"/>
<path d="M54.848 38.8457H72.1322C72.471 38.8457 72.7449 38.5712 72.7449 38.233C72.7449 37.8948 72.471 37.6203 72.1322 37.6203H54.848C54.5092 37.6203 54.2354 37.8948 54.2354 38.233C54.2354 38.5712 54.5092 38.8457 54.848 38.8457Z" fill="#252525"/>
<path d="M72.1319 42.5216H58.5238C58.185 42.5216 57.9111 42.7961 57.9111 43.1343C57.9111 43.4725 58.185 43.747 58.5238 43.747H72.1319C72.4707 43.747 72.7446 43.4725 72.7446 43.1343C72.7446 42.7961 72.4707 42.5216 72.1319 42.5216Z" fill="#252525"/>
<path d="M72.1322 47.4231H54.848C54.5092 47.4231 54.2354 47.6976 54.2354 48.0358C54.2354 48.374 54.5092 48.6484 54.848 48.6484H72.1322C72.471 48.6484 72.7449 48.374 72.7449 48.0358C72.7449 47.6976 72.471 47.4231 72.1322 47.4231Z" fill="#252525"/>
</svg>
