<svg width="56" height="56" viewBox="0 0 56 56" fill="none" xmlns="http://www.w3.org/2000/svg">
<rect width="56" height="56" rx="28" fill="#1C8E5A"/>
<path d="M42.1152 21.7493V35.0003C42.1153 36.0716 41.706 37.1024 40.971 37.8818C40.2361 38.6613 39.2311 39.1304 38.1616 39.1933L37.9152 39.2003H18.3152C17.2439 39.2003 16.2131 38.791 15.4337 38.0561C14.6542 37.3211 14.1851 36.3161 14.1222 35.2467L14.1152 35.0003V21.7493L27.3382 30.5651L27.5006 30.6575C27.692 30.751 27.9022 30.7996 28.1152 30.7996C28.3282 30.7996 28.5384 30.751 28.7298 30.6575L28.8922 30.5651L42.1152 21.7493Z" fill="white"/>
<path d="M37.9153 16.8003C39.4273 16.8003 40.7531 17.5983 41.4923 18.7981L28.1153 27.7161L14.7383 18.7981C15.0894 18.228 15.5717 17.7502 16.145 17.4044C16.7182 17.0586 17.3659 16.8548 18.0339 16.8101L18.3153 16.8003H37.9153Z" fill="white"/>
</svg>
