<svg width="223" height="48" viewBox="0 0 223 48" fill="none" xmlns="http://www.w3.org/2000/svg">
<path fill-rule="evenodd" clip-rule="evenodd" d="M28.979 0.615367C27.9807 2.34368 26.6791 3.804 23.8873 6.32813C18.1789 11.4888 16.9107 14.2677 17.2593 20.8529C17.8665 32.3231 31.1369 34.4079 36.2856 23.8421L36.6232 23.1493L36.2308 23.5902C34.5897 25.4347 34.0745 25.9569 33.3719 26.4888C27.987 30.5652 20.9704 28.2993 18.7404 21.7636C17.321 17.6031 19.0352 13.836 24.6431 8.7918C26.3257 7.27827 28.2093 5.36036 28.8215 4.53714C29.7518 3.28626 29.7997 3.33476 29.4785 5.20447C29.0133 7.91347 28.0852 9.92869 26.2461 12.2245C25.5375 13.1088 24.8141 14.0297 24.638 14.2709C23.7585 15.4764 23.601 16.7185 24.1395 18.1977L24.4466 19.0408L24.0409 20.0328C23.4977 21.3618 23.6504 21.8112 24.8267 22.3456C26.0804 22.915 26.7358 22.6505 27.2097 21.3832C27.633 20.251 27.655 20.315 26.8425 20.315C25.5353 20.315 24.5666 19.5689 24.6711 18.6424C24.7687 17.777 26.1267 15.5561 27.0378 14.7723C27.377 14.4803 28.6798 12.472 29.1213 11.56C30.8358 8.01866 31.0616 3.71519 29.6882 0.760862L29.3342 0L28.979 0.615367ZM39.1297 0.807787C36.8881 1.4833 34.3428 2.34967 34.3428 2.43722C34.3428 2.49138 34.5271 2.47816 34.7522 2.40793C34.9774 2.3377 35.3317 2.23566 35.5395 2.18087C38.1213 1.50251 40.1375 0.83865 40.1375 0.666701C40.1375 0.506088 40.1264 0.507347 39.1297 0.807787ZM49.0877 2.1774C47.132 6.1798 48.3911 12.2787 52.1047 16.7878C52.3613 17.0996 52.8161 17.7515 53.1149 18.2364C53.4138 18.7214 53.7587 19.2316 53.8808 19.3702C54.5935 20.178 55.2539 22.3116 55.0795 23.2416C54.8464 24.4843 52.9439 25.419 51.2755 25.1107C50.3949 24.9478 50.383 24.9371 50.5999 24.5041C50.6957 24.3133 50.7971 24.1067 50.8257 24.0453C50.8541 23.9839 50.6094 24.118 50.2819 24.3435C49.5859 24.8225 49.4237 24.7809 48.5032 23.8869C47.0564 22.4823 46.8435 20.805 48.0579 20.3814C49.7764 19.7818 51.0339 20.8188 51.0339 22.8359V23.8053L51.2509 23.4485C52.6923 21.0777 52.6309 19.1557 51.0881 18.358C48.802 17.1758 45.2937 21.6021 46.2458 24.4679C46.3645 24.8253 46.4281 25.1516 46.3875 25.1922C46.3188 25.2609 44.6866 24.8852 43.0348 24.4207C39.9976 23.5666 38.007 24.7079 36.2588 28.3053C35.1264 30.636 35.3462 31.6983 37.6092 34.8375C39.1807 37.0171 39.7517 38.0608 40.6558 40.4073C41.2951 42.066 41.4746 44.7611 41.0822 46.8113C40.8146 48.2108 40.8517 48.334 41.2589 47.3939C43.2663 42.7588 42.5022 37.9382 38.9637 32.9142C35.8343 28.4706 36.176 26.2986 40.0046 26.2986C41.0882 26.2986 41.3776 26.3543 42.9088 26.8566C44.97 27.5328 46.4224 27.6087 47.6629 27.1051L48.3492 26.8267L48.9075 27.0978C50.9275 28.0795 53.5077 26.7014 55.178 23.7489C56.7407 20.9867 56.6138 19.2804 54.6452 16.5973C54.1139 15.8736 53.4242 14.9348 53.1124 14.5112C50.3499 10.7595 49.5884 9.01855 49.2625 5.71025C49.1475 4.54376 49.2442 4.56958 50.2945 5.98581C50.7697 6.62668 52.3695 8.38208 53.8494 9.88649C59.2809 15.409 60.6203 18.1344 59.9929 22.3884C59.7508 24.0305 59.7823 24.1212 60.2008 22.9918C61.7619 18.78 61.0064 14.474 58.0952 10.9931C57.8344 10.6814 56.4138 9.20121 54.9384 7.70373C52.3453 5.0722 50.9593 3.40625 50.1024 1.89176C49.596 0.996428 49.6759 0.974068 49.0877 2.1774ZM58.4662 2.54996C58.3276 2.60822 57.8741 2.75057 57.4584 2.86646C57.0427 2.98235 56.5609 3.12596 56.3877 3.1858C56.2145 3.24563 55.4208 3.49663 54.6241 3.74416C52.459 4.41621 52.122 4.70878 54.1885 4.12239C58.3821 2.9326 58.7811 2.80095 58.7811 2.60853C58.7811 2.5087 58.7669 2.43092 58.7496 2.43564C58.7323 2.44037 58.6047 2.4917 58.4662 2.54996ZM37.597 3.91422C35.8844 6.99483 35.9565 9.42543 37.933 15.245C39.1442 18.8109 39.4304 20.1673 39.3555 21.9838C39.3045 23.2261 39.3164 23.32 39.4991 23.1178C41.029 21.4257 40.9018 18.3253 39.0784 12.8644C37.5727 8.35563 37.2474 6.11556 37.8007 4.07074C38.0353 3.20375 38.0051 3.18044 37.597 3.91422ZM43.4127 7.56359C42.7195 7.7853 42.4808 8.45924 42.9274 8.93415C43.3044 9.33568 43.1538 9.47803 41.4775 10.3063C40.7128 10.6839 40.1872 10.9931 40.31 10.9931C40.7355 10.9931 42.3728 10.226 42.8874 9.7854C43.3151 9.41945 43.448 9.3656 43.6524 9.47488C43.9471 9.63266 44.16 9.20814 43.927 8.92691C43.8454 8.82897 43.8218 8.53451 43.8681 8.19628C43.9487 7.60736 43.8227 7.43226 43.4127 7.56359ZM31.774 7.91725C31.6464 8.24981 31.6789 8.31941 32.2013 8.83683C32.5805 9.21223 32.7074 9.4396 32.714 9.75516C32.7351 10.7557 32.9946 10.7812 33.3952 9.82224C33.6408 9.2349 33.6393 9.09886 33.3908 9.45346C33.1666 9.77374 32.9571 9.81972 32.9571 9.54888C32.9571 8.58773 32.0152 7.28866 31.774 7.91725ZM43.5387 8.28477C43.5387 8.64977 43.391 8.68599 43.0975 8.39248C42.9299 8.22493 42.9224 8.16478 43.0568 8.07944C43.3585 7.88828 43.5387 7.96481 43.5387 8.28477ZM33.9784 8.45452C33.6355 8.93635 33.6399 9.05571 33.9885 8.73071C34.3179 8.42365 34.3897 8.41578 34.5948 8.66268C34.8379 8.95556 34.9935 8.8866 34.9497 8.50522C34.8895 7.98465 34.3337 7.95567 33.9784 8.45452ZM42.7895 11.5421C42.7331 11.6904 42.5372 12.1675 42.3542 12.6021C42.1168 13.1661 42.0551 13.4549 42.1395 13.6099C42.3445 13.9881 42.9545 14.4998 43.4442 14.7042C44.0111 14.9411 44.0044 14.8308 43.5226 15.9879C42.9863 17.2762 43.4136 18.0166 44.8494 18.2846C46.0464 18.5085 46.3034 18.364 46.7323 17.2262C47.1622 16.0861 47.161 16.0792 46.5538 16.1371C45.9069 16.1989 45.0727 15.8855 44.617 15.41C44.2183 14.994 44.2765 14.7723 44.7845 14.7723C45.1697 14.7723 45.2257 14.6916 45.7381 13.3963C46.1315 12.4018 46.1355 12.4579 45.6758 12.5498C44.9543 12.6941 44.0693 12.4002 43.4562 11.8129C42.9179 11.297 42.8874 11.2848 42.7895 11.5421ZM23.1787 12.2985C21.3332 14.4076 20.225 17.7294 21.1238 18.4572C21.6031 18.8452 22.3054 18.54 22.7035 17.7707C22.9762 17.2435 22.9138 17.1329 22.5117 17.4299C22.0437 17.776 21.5329 17.68 21.4186 17.2243C21.2583 16.5859 21.5962 15.6985 22.9639 13.1661C23.4694 12.2299 23.5604 11.862 23.1787 12.2985ZM32.8312 12.592C32.8312 12.655 32.8784 12.7602 32.936 12.826C33.0938 13.0065 33.3158 13.8668 33.4087 14.6595C33.4771 15.244 33.5489 15.3996 33.8248 15.5627C36.1089 16.9119 37.5418 20.5335 36.6767 22.7714C36.5807 23.0192 36.5823 23.0192 36.7712 22.7682C37.6741 21.5668 37.9906 17.8538 37.3252 16.2694C36.672 14.7149 35.0161 13.1076 33.7035 12.7542C33.4229 12.6786 33.1118 12.5854 33.0123 12.5473C32.9127 12.5092 32.8312 12.5293 32.8312 12.592ZM41.6034 19.1356C41.1786 19.5601 41.1424 20.4031 41.5269 20.9231C41.7697 21.2512 41.7722 21.29 41.5767 21.6814C41.3062 22.224 41.423 22.3113 41.8916 21.917C42.1001 21.7416 42.6093 21.392 43.0238 21.1407C43.7153 20.7203 44.0586 20.2888 43.8593 20.0898C43.8152 20.0457 43.6542 20.0888 43.5015 20.1855C42.4308 20.8636 41.5502 20.7385 41.6708 19.9254C41.7373 19.4776 42.0932 19.333 42.5237 19.5793C42.9309 19.812 43.0348 19.7701 43.0348 19.3743C43.0348 18.728 42.1571 18.5816 41.6034 19.1356ZM34.1224 19.0127C34.0358 19.0477 33.9649 19.1315 33.9649 19.1992C33.9649 19.2669 34.0241 19.2855 34.0965 19.2407C34.1687 19.196 34.312 19.2291 34.4143 19.3144C34.6373 19.4993 34.7812 19.3947 34.6773 19.1236C34.6026 18.9296 34.4193 18.8927 34.1224 19.0127ZM33.7149 19.5686C33.7126 19.9591 34.1882 20.4409 34.5759 20.4409C34.9544 20.4409 34.7226 19.9729 34.3148 19.9144C34.1605 19.8923 33.9627 19.7323 33.8755 19.5591L33.7167 19.2442L33.7149 19.5686ZM30.8371 20.138C30.4966 20.3761 30.4809 21.3221 30.8156 21.4232C30.9681 21.4692 30.9744 21.4481 30.8471 21.3133C30.7605 21.2216 30.6897 20.9842 30.6897 20.7858C30.6897 20.2362 31.4682 20.3197 31.5875 20.8818C31.6615 21.2308 31.6688 21.2204 31.6826 20.7496C31.705 19.984 31.386 19.7534 30.8371 20.138ZM31.3129 21.5844C31.2128 21.7243 30.7653 22.0908 30.3187 22.3995C29.3134 23.0939 29.5248 23.1128 31.0046 22.4599C31.1432 22.3988 31.3416 22.321 31.4455 22.2867C31.562 22.2483 31.5258 22.2206 31.351 22.2146C30.997 22.202 30.9952 22.1091 31.3409 21.7406C31.4915 21.5806 31.5875 21.4229 31.5548 21.3901C31.5223 21.3574 31.4134 21.4449 31.3129 21.5844ZM55.9824 24.3145C54.5658 25.9373 54.2622 29.0498 55.6422 27.8008C55.9808 27.4947 55.9742 27.1848 55.6337 27.3973C54.8231 27.9037 54.8533 26.7801 55.6942 25.1595C56.268 24.0528 56.3048 23.9451 55.9824 24.3145ZM58.2873 26.5571C58.2816 26.6299 57.7948 27.2065 57.2049 27.8386C54.0424 31.2278 49.7667 33.74 45.6959 34.6003L44.389 34.8768L45.9173 35.0466C48.164 35.2966 49.275 35.1814 50.2564 34.5969C53.103 32.9013 55.0206 31.3024 56.6585 29.2589C57.4521 28.2684 58.4237 26.7369 58.3594 26.5779C58.3251 26.4935 58.2927 26.4841 58.2873 26.5571ZM44.5464 30.2619C44.5464 30.3976 44.764 30.7242 45.0302 30.9878C45.4254 31.379 45.5299 31.5881 45.6021 32.1307C45.7022 32.8862 45.8014 32.8837 46.173 32.1156C46.4495 31.5449 46.5453 30.99 46.2766 31.5163C46.0732 31.915 45.8061 32 45.8061 31.6665C45.8061 31.07 45.2068 30.0147 44.8683 30.0147C44.6324 30.0147 44.5464 30.0808 44.5464 30.2619ZM46.9301 30.5091C46.7276 30.7116 46.562 30.9422 46.562 31.0218C46.562 31.1081 46.642 31.0867 46.76 30.9686C47.0158 30.7126 47.4003 30.7151 47.5448 30.9733C47.6472 31.1563 47.6664 31.1547 47.7426 30.9554C47.9949 30.2988 47.4431 29.9958 46.9301 30.5091Z" fill="#1C8E5A"/>
<path fill-rule="evenodd" clip-rule="evenodd" d="M15.1954 2.50147C15.1954 2.54241 15.0279 3.20848 14.8231 3.98163C14.387 5.62901 13.9297 7.39417 12.9748 11.1191C11.815 15.6427 11.3224 17.5505 10.9908 18.8033C10.8167 19.4615 10.3833 21.1338 10.0281 22.5195C7.55843 32.154 6.72954 35.3719 6.07071 37.8828C5.73122 39.1762 5.6843 39.1403 7.16477 38.7149C8.61343 38.2988 11.4506 37.5481 11.9614 37.4457C12.2959 37.3786 12.6076 37.3012 12.6542 37.2731C12.7399 37.2221 16.057 36.54 17.3369 36.3104C20.8886 35.673 26.4115 35.3524 28.3048 35.6736C30.1944 35.9942 30.6986 35.9004 29.4616 35.4582C25.2223 33.9422 19.7363 33.8634 10.7234 35.1893C8.15395 35.5675 8.18166 35.5754 8.4525 34.5367C8.70696 33.5595 9.26847 31.3081 9.42342 30.6446C9.49617 30.3328 9.6341 29.7943 9.72984 29.4478C9.82558 29.1014 11.039 24.2264 12.4259 18.6144C13.8129 13.0024 15.0893 7.87223 15.2625 7.21403C15.4357 6.55584 15.6801 5.59216 15.806 5.07253L16.0344 4.12775L16.5911 4.12964C16.8976 4.1309 17.3747 4.17751 17.6518 4.23357C18.3251 4.3693 18.1497 4.20397 16.554 3.19841C15.3384 2.43219 15.1954 2.35881 15.1954 2.50147ZM62.7852 3.79015C61.4682 4.61117 61.1366 4.91664 61.71 4.7806C61.8659 4.74344 62.3131 4.6751 62.7039 4.62817L63.4141 4.54314L63.5385 4.96514C63.6068 5.19756 63.7262 5.61421 63.8033 5.89134C63.8808 6.16848 65.2215 11.5537 66.7829 17.8585C68.3443 24.1634 69.7599 29.8604 69.9287 30.5186C71.2621 35.7209 71.3364 36.1696 70.8338 35.9948C70.7522 35.9665 70.0052 35.8522 69.1738 35.741C68.3424 35.6295 67.2653 35.485 66.7803 35.4198C59.0401 34.3752 51.6295 34.737 49.3999 36.2685C49.1013 36.4735 49.1747 36.477 50.1522 36.3041C51.3036 36.1003 57.2721 36.1479 59.0832 36.375C63.0504 36.8725 67.2099 37.7625 72.2569 39.1939C73.8076 39.6338 73.7812 39.6401 73.5793 38.8676C73.4927 38.5366 73.2124 37.4722 72.9564 36.5022C72.7003 35.5322 72.2081 33.6332 71.862 32.2822C71.5162 30.9311 71.0734 29.2022 70.8779 28.4401C70.6826 27.678 70.2266 25.9207 69.8647 24.535C69.5026 23.1493 69.1646 21.8172 69.1133 21.5747C69.0623 21.3322 68.8384 20.4535 68.6157 19.6221C68.3931 18.7907 67.9355 17.0334 67.5988 15.717C67.2622 14.4007 66.7803 12.53 66.5281 11.56C66.2761 10.59 65.8233 8.83275 65.5219 7.65493C65.2205 6.4771 64.8275 4.9664 64.6489 4.29782C64.47 3.62923 64.3239 3.04819 64.3239 3.00661C64.3239 2.85514 64.1101 2.9641 62.7852 3.79015Z" fill="#FFD050"/>
<path fill-rule="evenodd" clip-rule="evenodd" d="M27.3421 40.725C24.3028 40.9058 21.1821 41.4714 17.4629 42.5157C16.7354 42.7198 15.9701 42.933 15.7623 42.989C15.1932 43.143 13.8547 43.5937 12.8684 43.9634L11.9904 44.2928L13.1833 44.5801C14.5079 44.8988 14.4207 44.9085 16.707 44.1861C17.296 44.0003 17.9478 43.8003 18.1557 43.7424C18.3636 43.6841 19.3839 43.3821 20.4232 43.0712C23.5976 42.1217 29.111 40.8463 30.036 40.8475C30.2819 40.8479 30.4208 40.7965 30.3748 40.7222C30.2901 40.5852 29.6789 40.5858 27.3421 40.725ZM48.5776 41.1744C50.0011 41.3517 53.1368 41.9973 55.38 42.5749C58.1265 43.2822 60.8437 44.0607 62.8753 44.7224C65.0353 45.4259 64.9837 45.4181 65.9196 45.1964C66.393 45.0843 66.9079 44.9658 67.0638 44.9334C67.4618 44.8506 67.4165 44.7123 66.9378 44.5498C60.119 42.2323 55.4981 41.2951 50.2782 41.1707C49.1004 41.1426 48.3351 41.1442 48.5776 41.1744Z" fill="#FFD050"/>
<path fill-rule="evenodd" clip-rule="evenodd" d="M10.5965 9.45C10.5464 9.57124 10.4611 9.8405 10.4066 10.0484C10.3525 10.2562 9.92762 11.7301 9.4631 13.3236C8.99827 14.9171 8.57375 16.391 8.51927 16.5988C8.41912 16.9811 7.37451 20.6359 7.13296 21.4487C6.94684 22.0748 5.48495 27.2304 5.36496 27.6842C5.30985 27.8921 5.02988 28.8841 4.74267 29.8887C4.45577 30.8933 4.08006 32.2255 3.90843 32.849C3.73648 33.4726 3.51382 34.2662 3.41399 34.6126C3.09907 35.7016 2.42481 38.1124 1.78456 40.4378C1.61734 41.0447 1.22872 42.448 0.920719 43.5565C0.208671 46.1203 0.176234 46.2649 0.315432 46.2649C0.379047 46.2649 1.15944 46.0041 2.05005 45.6854C2.94034 45.3667 3.83914 45.0609 4.04699 45.0055C4.25485 44.9501 4.93509 44.735 5.55864 44.5271C6.99471 44.0488 9.63064 43.2325 11.1013 42.8108C11.7249 42.6319 12.4051 42.431 12.613 42.3642C13.0296 42.2304 14.3098 41.9092 16.707 41.3369C18.6561 40.8718 21.5837 40.2952 23.0056 40.0961C23.5945 40.0139 24.4164 39.8943 24.8321 39.8303C26.5857 39.5611 30.2338 39.4216 32.0125 39.556C34.0749 39.7116 34.0217 39.7261 33.2712 39.2099C30.2341 37.1204 24.3673 36.9384 15.8882 38.6711C13.0152 39.2581 13.1087 39.2367 11.1013 39.7667C9.5601 40.1739 8.72271 40.4095 5.68461 41.2903C4.68315 41.581 3.56736 41.8559 3.39069 41.8559C3.08741 41.8559 3.15953 41.5029 4.38082 37.0061C4.58804 36.2439 4.94894 34.8835 5.18293 33.9828C5.41693 33.0821 5.69249 32.0334 5.79484 31.6523C5.89719 31.2713 6.15984 30.2792 6.3784 29.4478C6.59695 28.6164 6.88795 27.511 7.02494 26.9914C7.16193 26.4718 7.4082 25.5364 7.57228 24.9129C8.08372 22.966 8.49407 21.415 8.70539 20.6299C8.81719 20.2142 9.08046 19.2222 9.29021 18.4254C9.50026 17.6286 9.77677 16.5799 9.90463 16.0949C10.7272 12.9791 10.9237 12.2289 11.1095 11.497C11.3492 10.5526 11.4701 10.3645 11.8411 10.3598C12.0653 10.3567 12.0102 10.2644 11.5029 9.79295C10.8302 9.16782 10.7288 9.1294 10.5965 9.45ZM67.9843 10.3349L67.2987 10.9302L67.7324 10.9931C68.1251 11.0501 68.1796 11.1097 68.3084 11.623C68.4347 12.125 68.8998 13.898 69.6141 16.5988C69.7425 17.0838 70.0191 18.1325 70.2291 18.9293C70.4389 19.726 70.7015 20.7181 70.8123 21.1338C71.0577 22.0518 71.6686 24.3788 72.0692 25.9207C72.4481 27.3803 73.2102 30.2654 73.5998 31.7153C73.767 32.3389 74.1062 33.6143 74.3528 34.5496C74.868 36.5012 75.1605 37.6076 75.5281 38.9901C76.5361 42.7853 76.5594 42.6146 75.0944 42.163C74.748 42.0559 74.1811 41.8912 73.8347 41.797C73.4883 41.7026 71.8727 41.2491 70.2445 40.7893C68.6164 40.3298 67.0291 39.8999 66.7174 39.8341C66.4056 39.7686 65.782 39.6303 65.3317 39.5274C63.9258 39.2058 62.7931 38.9794 61.5526 38.7722C60.8944 38.6619 60.0441 38.5187 59.663 38.4531C53.9427 37.4728 48.1773 38.0938 46.0128 39.9239L45.6173 40.258L46.1842 40.173C49.0009 39.7506 55.3526 40.1944 59.3481 41.0922C59.6252 41.1546 60.1921 41.2743 60.6078 41.358C61.6118 41.5605 66.3492 42.7128 67.0827 42.9333C67.4014 43.029 68.1723 43.2545 68.7959 43.4347C70.8202 44.0195 73.145 44.7551 76.1799 45.772C77.8166 46.3203 79.1922 46.7688 79.2373 46.7688C79.327 46.7688 79.2587 46.4132 78.9844 45.4461C78.7983 44.7917 77.103 38.7007 76.9068 37.9823C76.6709 37.1185 76.5352 36.636 75.4103 32.6601C74.7732 30.4084 74.2054 28.396 74.1484 28.1881C74.0914 27.9803 73.8098 26.9883 73.5226 25.9836C72.7457 23.2668 72.6635 22.9767 72.3983 22.0156C72.175 21.2059 71.2825 18.0705 70.8026 16.4099C70.6924 16.0288 70.5557 15.5753 70.4987 15.4021C70.4417 15.2289 70.1006 14.0385 69.7407 12.7567C68.7571 9.25474 68.9392 9.50574 67.9843 10.3349Z" fill="#1C8E5A"/>
<path d="M111.369 14.816C111.369 19.472 107.265 23 101.697 23H90.9455V12.992H95.9375V18.872H101.697C104.457 18.872 106.449 17.336 106.449 15.032C106.449 12.776 104.385 11.12 101.697 11.12H90.9455L94.1135 6.944H101.697C107.313 6.944 111.369 10.184 111.369 14.816ZM119.891 6.944V23H114.923V6.944H119.891ZM130.88 16.544L133.856 12.968H144.128V23H133.112C127.544 23 123.44 19.472 123.44 14.816C123.44 10.112 127.544 6.944 133.112 6.944H144.608L141.392 11.12H133.112C130.424 11.12 128.384 12.752 128.384 15.032C128.384 17.36 130.352 18.872 133.112 18.872H139.184V16.544H130.88ZM152.983 6.944V23H148.015V6.944H152.983ZM158.739 6.944H176.979L173.763 11.12H168.027V23H163.059V11.12H155.523L158.739 6.944ZM199.842 23H181.17L184.17 18.872H188.202C189.162 18.872 190.29 18.872 191.058 18.92C190.626 18.344 189.954 17.36 189.426 16.592L186.546 12.344L179.01 23H173.13L183.426 8.48C184.098 7.544 185.082 6.68 186.642 6.68C188.13 6.68 189.114 7.472 189.81 8.48L199.842 23ZM207.541 18.872H219.973L216.757 23H202.573V6.944H207.541V18.872Z" fill="#FFD050"/>
<path d="M95.6563 44.1094C95.2266 44.1094 94.9532 43.8281 94.9532 43.3828V33.3438C94.9532 32.8984 95.2266 32.6172 95.6563 32.6172C96.086 32.6172 96.3594 32.8984 96.3594 33.3438V43.3828C96.3594 43.8281 96.086 44.1094 95.6563 44.1094ZM105.002 44.1094C104.573 44.1094 104.307 43.8281 104.307 43.3828V33.4375C104.307 32.9453 104.627 32.6172 105.112 32.6172C105.487 32.6172 105.674 32.7266 105.924 33.0859L111.846 41.5781H111.916V33.3438C111.916 32.8984 112.182 32.6172 112.612 32.6172C113.041 32.6172 113.307 32.8984 113.307 33.3438V43.3438C113.307 43.8203 113.01 44.1094 112.51 44.1094C112.127 44.1094 111.948 44.0078 111.698 43.6484L105.768 35.1797H105.698V43.3828C105.698 43.8281 105.432 44.1094 105.002 44.1094ZM124.95 44.1875C122.833 44.1875 121.325 43.2344 120.903 41.875C120.856 41.7188 120.825 41.5469 120.825 41.3828C120.825 40.9375 121.075 40.6562 121.473 40.6562C121.825 40.6562 122.043 40.8359 122.153 41.2109C122.497 42.375 123.606 42.9219 125.028 42.9219C126.559 42.9219 127.668 42.1172 127.668 41.0078C127.668 40.0625 127.043 39.4375 125.481 39.0938L124.231 38.8203C121.973 38.3281 120.997 37.3047 120.997 35.7031C120.997 33.8438 122.637 32.5391 124.973 32.5391C126.856 32.5391 128.372 33.4844 128.778 35.0078C128.801 35.0938 128.817 35.2109 128.817 35.3594C128.817 35.7422 128.551 35.9922 128.176 35.9922C127.817 35.9922 127.598 35.8047 127.473 35.4453C127.083 34.3047 126.153 33.8047 124.934 33.8047C123.528 33.8047 122.442 34.4922 122.442 35.6406C122.442 36.5312 123.043 37.1406 124.583 37.4766L125.833 37.75C128.184 38.2656 129.114 39.2031 129.114 40.7969C129.114 42.8828 127.473 44.1875 124.95 44.1875ZM140.069 44.1094C139.639 44.1094 139.366 43.8281 139.366 43.3828V33.9922H136.366C135.968 33.9922 135.694 33.7344 135.694 33.3594C135.694 32.9844 135.968 32.7266 136.366 32.7266H143.772C144.171 32.7266 144.444 32.9844 144.444 33.3594C144.444 33.7344 144.171 33.9922 143.772 33.9922H140.772V43.3828C140.772 43.8281 140.499 44.1094 140.069 44.1094ZM152.274 44.1094C151.845 44.1094 151.571 43.8281 151.571 43.3828V33.3438C151.571 32.8984 151.845 32.6172 152.274 32.6172C152.704 32.6172 152.978 32.8984 152.978 33.3438V43.3828C152.978 43.8281 152.704 44.1094 152.274 44.1094ZM164.48 44.1094C164.05 44.1094 163.777 43.8281 163.777 43.3828V33.9922H160.777C160.378 33.9922 160.105 33.7344 160.105 33.3594C160.105 32.9844 160.378 32.7266 160.777 32.7266H168.183C168.581 32.7266 168.855 32.9844 168.855 33.3594C168.855 33.7344 168.581 33.9922 168.183 33.9922H165.183V43.3828C165.183 43.8281 164.909 44.1094 164.48 44.1094ZM180.458 44.1875C177.662 44.1875 175.982 42.4531 175.982 40.0469V33.3438C175.982 32.8984 176.255 32.6172 176.685 32.6172C177.115 32.6172 177.388 32.8984 177.388 33.3438V39.9531C177.388 41.6562 178.505 42.8906 180.458 42.8906C182.412 42.8906 183.529 41.6562 183.529 39.9531V33.3438C183.529 32.8984 183.802 32.6172 184.232 32.6172C184.662 32.6172 184.935 32.8984 184.935 33.3438V40.0469C184.935 42.4531 183.255 44.1875 180.458 44.1875ZM196.437 44.1094C196.008 44.1094 195.734 43.8281 195.734 43.3828V33.9922H192.734C192.336 33.9922 192.062 33.7344 192.062 33.3594C192.062 32.9844 192.336 32.7266 192.734 32.7266H200.14C200.539 32.7266 200.812 32.9844 200.812 33.3594C200.812 33.7344 200.539 33.9922 200.14 33.9922H197.14V43.3828C197.14 43.8281 196.867 44.1094 196.437 44.1094ZM208.643 44C208.213 44 207.939 43.7188 207.939 43.2734V33.4531C207.939 33.0078 208.213 32.7266 208.643 32.7266H214.369C214.768 32.7266 215.041 32.9844 215.041 33.3594C215.041 33.7344 214.768 33.9922 214.369 33.9922H209.346V37.6094H214.088C214.478 37.6094 214.752 37.8594 214.752 38.2344C214.752 38.6016 214.478 38.8594 214.088 38.8594H209.346V42.7344H214.369C214.768 42.7344 215.041 42.9922 215.041 43.3672C215.041 43.7422 214.768 44 214.369 44H208.643Z" fill="#1A1A1A"/>
</svg>
