<svg width="48" height="48" viewBox="0 0 48 48" fill="none" xmlns="http://www.w3.org/2000/svg">
<path d="M36 12C40.14 16.08 41.7 21.78 40.72 27.1C41.54 28.54 42 30.22 42 32C42 34.6522 40.9464 37.1957 39.0711 39.0711C37.1957 40.9464 34.6522 42 32 42C30.22 42 28.54 41.54 27.1 40.72C21.78 41.7 16.08 40.14 12 36C7.86 31.92 6.3 26.22 7.28 20.9C6.46 19.46 6 17.78 6 16C6 13.3478 7.05357 10.8043 8.92893 8.92893C10.8043 7.05357 13.3478 6 16 6C17.78 6 19.46 6.46 20.9 7.28C26.22 6.3 31.92 7.86 36 12ZM24.08 34.32C29.82 34.32 32.68 31.56 32.68 27.84C32.68 25.46 31.56 22.92 27.22 21.94L23.24 21.06C21.72 20.72 20 20.26 20 18.84C20 17.4 21.2 16.4 23.4 16.4C27.86 16.4 27.44 19.46 29.66 19.46C30.82 19.46 31.82 18.78 31.82 17.6C31.82 14.86 27.44 12.8 23.72 12.8C19.7 12.8 15.4 14.52 15.4 19.08C15.4 21.28 16.18 23.62 20.5 24.7L25.88 26.06C27.5 26.46 27.9 27.36 27.9 28.2C27.9 29.56 26.54 30.9 24.08 30.9C19.26 30.9 19.92 27.2 17.34 27.2C16.18 27.2 15.34 28 15.34 29.14C15.34 31.36 18 34.32 24.08 34.32Z" fill="#1C8E5A"/>
</svg>
