<svg width="33" height="32" viewBox="0 0 33 32" fill="none" xmlns="http://www.w3.org/2000/svg">
<path d="M25.4459 9.61333C25.322 9.48836 25.1745 9.38917 25.0121 9.32148C24.8496 9.25378 24.6753 9.21893 24.4993 9.21893C24.3233 9.21893 24.149 9.25378 23.9865 9.32148C23.824 9.38917 23.6766 9.48836 23.5526 9.61333L13.6193 19.56L9.44595 15.3733C9.31725 15.249 9.16533 15.1513 8.99886 15.0857C8.83238 15.0201 8.65462 14.9879 8.47571 14.991C8.2968 14.9941 8.12026 15.0324 7.95615 15.1037C7.79205 15.175 7.6436 15.278 7.51928 15.4067C7.39496 15.5354 7.29721 15.6873 7.23161 15.8538C7.166 16.0202 7.13383 16.198 7.13692 16.3769C7.14002 16.5558 7.17832 16.7324 7.24965 16.8965C7.32097 17.0606 7.42392 17.209 7.55262 17.3333L12.6726 22.4533C12.7966 22.5783 12.944 22.6775 13.1065 22.7452C13.269 22.8129 13.4433 22.8477 13.6193 22.8477C13.7953 22.8477 13.9696 22.8129 14.1321 22.7452C14.2945 22.6775 14.442 22.5783 14.5659 22.4533L25.4459 11.5733C25.5813 11.4485 25.6893 11.2969 25.7632 11.1283C25.8371 10.9596 25.8752 10.7775 25.8752 10.5933C25.8752 10.4092 25.8371 10.2271 25.7632 10.0584C25.6893 9.88972 25.5813 9.73819 25.4459 9.61333Z" fill="#1C8E5A"/>
</svg>
